/* XPM */
static char *dc865fb23428402c9753cd70dc632972YWIykAcZUQnOnU4p[] = {
/* columns rows colors chars-per-pixel */
"64 64 256 2 ",
"   c #927E75",
".  c #92795A",
"X  c #9B8576",
"o  c #97846E",
"O  c #A58977",
"+  c #A8947C",
"@  c #A6896B",
"#  c #B6A27F",
"$  c #777A9B",
"%  c #6A7BAC",
"&  c #747CB8",
"*  c #6F7BB1",
"=  c #6E7DCA",
"-  c #827CAA",
";  c #6D87B9",
":  c #7787BA",
">  c #778CB4",
",  c #77819C",
"<  c #6C83C5",
"1  c #7B8AC4",
"2  c #7888C8",
"3  c #6E84D8",
"4  c #788BD6",
"5  c #7B94CF",
"6  c #738BE4",
"7  c #7B93E5",
"8  c #7F93F2",
"9  c #9A969B",
"0  c #8B8797",
"q  c #A48984",
"w  c #A99785",
"e  c #B4978B",
"r  c #A39B9C",
"t  c #AA9897",
"y  c #B69C96",
"u  c #AA8F98",
"i  c #A9A399",
"p  c #BCA49B",
"a  c #BBAD9C",
"s  c #B7A898",
"d  c #BBB49C",
"f  c #B7A58C",
"g  c #8486A9",
"h  c #9999A7",
"j  c #8789B7",
"k  c #8895B9",
"l  c #9498BA",
"z  c #8A94A8",
"x  c #A79CA7",
"c  c #AE9DAA",
"v  c #9CA5B2",
"b  c #ACA5A5",
"n  c #A9A6AA",
"m  c #B3A4A5",
"M  c #B5ABA4",
"N  c #BCACA4",
"B  c #B4ABAB",
"V  c #BCACAB",
"C  c #B8A5A8",
"Z  c #BCB2A4",
"A  c #BCB4AB",
"S  c #B9B6AC",
"D  c #AAA7B7",
"F  c #B4ABB4",
"G  c #BBAEB2",
"H  c #B5A9B9",
"J  c #BDB2B3",
"K  c #BCB2BB",
"L  c #BAB8B7",
"P  c #AFB3A5",
"I  c #9FA19C",
"U  c #C29F93",
"Y  c #C3A89A",
"T  c #C6B59B",
"R  c #D0B59A",
"E  c #C3ABA3",
"W  c #C3ADAC",
"Q  c #C9ABA7",
"!  c #C4B4A4",
"~  c #CBB4A4",
"^  c #CBBBA4",
"/  c #C3B3AC",
"(  c #CBB5AB",
")  c #C5BBAC",
"_  c #CBBBAC",
"`  c #C3BAA4",
"'  c #D3BCAC",
"]  c #D6B9A8",
"[  c #C3ADB3",
"{  c #C3B4B4",
"}  c #CAB5B3",
"|  c #C5BBB3",
" . c #CBBCB4",
".. c #C3B5BB",
"X. c #C4BBBA",
"o. c #CBBCBB",
"O. c #CBB6BA",
"+. c #D3BDB3",
"@. c #D3BEBA",
"#. c #D9BBB7",
"$. c #D6AFA0",
"%. c #E1BEB1",
"&. c #BDC3B5",
"*. c #D3C59B",
"=. c #CBC3AB",
"-. c #D4C3AC",
";. c #DBC4AC",
":. c #D9C9AA",
">. c #CDC3B4",
",. c #CCC3BB",
"<. c #C9C6B8",
"1. c #D3C3B3",
"2. c #DBC4B4",
"3. c #D3CCB4",
"4. c #DCCBB5",
"5. c #D3C4BC",
"6. c #DAC5BB",
"7. c #D4CBBC",
"8. c #DBCBBB",
"9. c #DCD2BC",
"0. c #DAD4B8",
"q. c #E2C7AB",
"w. c #E3D1AD",
"e. c #E2CCB3",
"r. c #E2CCBB",
"t. c #E6C8B9",
"y. c #E4D3BC",
"u. c #E8D8BB",
"i. c #F1DABC",
"p. c #EEE2B9",
"a. c #848CC6",
"s. c #8697C8",
"d. c #8696D6",
"f. c #9697CA",
"g. c #99A7D8",
"h. c #90A4C6",
"j. c #A8AAC6",
"k. c #B6ADC6",
"l. c #BBBAC4",
"z. c #B8B5C8",
"x. c #A6AAD9",
"c. c #AAB5D6",
"v. c #BCBBD2",
"b. c #B8B6D4",
"n. c #ADB3C9",
"m. c #8799E4",
"M. c #99A9EE",
"N. c #B8BBE9",
"B. c #A8B5EC",
"V. c #A39DC9",
"C. c #CBBCC3",
"Z. c #C8BAC6",
"A. c #D2BDC6",
"S. c #C3BAD5",
"D. c #D2BFD5",
"F. c #C3BEE7",
"G. c #BAC1C8",
"H. c #B8C3D8",
"J. c #B9C7E6",
"K. c #BAC8F5",
"L. c #B3CFF5",
"P. c #CCC3C3",
"I. c #CCC4CB",
"U. c #CAC8C7",
"Y. c #D3C5C3",
"T. c #DAC5C3",
"R. c #D4CBC4",
"E. c #DCCCC3",
"W. c #D4C5CB",
"Q. c #D5CBCC",
"!. c #DBCCCB",
"~. c #D9C4CC",
"^. c #DCD3C4",
"/. c #D5D2CA",
"(. c #DCD3CB",
"). c #DED9CC",
"_. c #DAD9C7",
"`. c #C9C6D6",
"'. c #DBCCD2",
"]. c #D5CAD8",
"[. c #DDD4D3",
"{. c #DCD4DB",
"}. c #D9D7D7",
"|. c #CAD2D2",
" X c #E2CCC3",
".X c #E2CDCB",
"XX c #E7CAC5",
"oX c #E3D4C4",
"OX c #ECD4C4",
"+X c #E4DAC3",
"@X c #ECDBC4",
"#X c #E4D3CC",
"$X c #EBD5CB",
"%X c #E4DACB",
"&X c #ECDCCC",
"*X c #F3DCC4",
"=X c #F3DCCB",
"-X c #F7DAC8",
";X c #E4CDD3",
":X c #E3D4D3",
">X c #EBD5D3",
",X c #E4DBD3",
"<X c #EBDCD4",
"1X c #E4DADB",
"2X c #ECDBDB",
"3X c #E4D5DA",
"4X c #F2DCD3",
"5X c #F4DCD7",
"6X c #F1CFC1",
"7X c #E6E3CC",
"8X c #ECE1CC",
"9X c #EAE2C4",
"0X c #F3E2CB",
"qX c #FBE4CC",
"wX c #F6E7C9",
"eX c #ECE2D4",
"rX c #ECE3DC",
"tX c #E7E3D8",
"yX c #F4E3D3",
"uX c #FBE4D4",
"iX c #F4EAD4",
"pX c #FCEAD4",
"aX c #F3E4DB",
"sX c #FCE4DB",
"dX c #F3EADC",
"fX c #FDECDC",
"gX c #FCF3DA",
"hX c #FDF3CF",
"jX c #C7C9E4",
"kX c #D9CDE7",
"lX c #D8D7E9",
"zX c #CAD6FC",
"xX c #D7D8F9",
"cX c #CDD0F0",
"vX c #EBDDE2",
"bX c #E5DAE6",
"nX c #F2DCE3",
"mX c #E5DCF9",
"MX c #D9E6FE",
"NX c #CAE2FF",
"BX c #EDE4E2",
"VX c #E9E5E7",
"CX c #F3E4E3",
"ZX c #F4EAE3",
"AX c #FDECE3",
"SX c #F5EBE9",
"DX c #FAE8E8",
"FX c #FEF4E4",
"GX c #FDF2EB",
"HX c #FDF9EB",
"JX c #E2EDFF",
"KX c #EDECFF",
"LX c #E6E3FA",
"PX c #F7EBF7",
"IX c #EAF6FF",
"UX c #F8F6FC",
/* pixels */
"yX^ T ` yX} !.2X( y.-.3.2XA.4.uXQ Q #.5XQ CX}.| 1X| R.&XT 0Xt.~ Y 5XXXT uX=.1.^.d eX8Xs GXO.W N AX} R.CXZ 0.0.=.<X#X! fXT E +.uX",
"8.^ o 4.1.( 3X..yX8XiX9.A.2X! r.y q -X( Y.5.,.rX,XdX,.eX-.R $Xq U XX( $X6.8.iX0XiXa &X7.( T.q @.6.a vX{ 7Xp.hX9X{ <X .1.~ w  X#.",
"t.pXqX9X@XGXQ.3X%Xd u.%X3X:XuX@XAXAXy.pX4X X&X&X! yXoX+.pX0X4XAXAX%XCXE.6.&X4.=.wX&Xr.aX4X>XAXyX@XFX'.A.gX` :.+X3X'.DX0X*XqX-X-X",
"t.i.] w.y.#XbXJ dX0.hX0.O.CXr.y.4.8.4.e.4XE.! pXoXAX6. .yXy.6.6. .oX#XaX>.%X0Xi.*XY 4X X.X$X+.e.w.OXvXO.7Xp.9X7XG SX.Xr.w.;.t.6X",
"i.%.O 2.y./ BXQ.=._.0.1.;X>X( *Xf + i.-.>.>X^.7.%XR.5.aX^ ] 0Xw a &X>.R.,X5.<.eX7.E.aX} .Xt.O ] *XT >X>X=.0.7X) }.[./ &X~ O t.t.",
"6XQ +.W %X,.J VX7.0.:.%XnXC 6.y.) _ =.9XM ,.SXL !.R.CX!.! y.#._ T 9.7.i rX3XY.[.O.UXJ W sXa 6.a =X( N aX0.3.^./.SXB >.<XC +.+.6X",
"'.F ].K o.R.,.A eX7X9XoXN T.T.Y.K U.S =.%XS o.GX,X2XP.M 9.6.V ~.{ | ,.%XM P.GX[.SXJ X.~.Y.G ;XV 5.2.!./ +X0XeX,Xm [.Y.J J ].[ C.",
"h S.b.z.x P.) 7./ iX+X^ R.o.[ D b.c.l.i P.,. .[ GX5.1.>.7.b k.b.v.n | L 5.5.5.PXW !...I.n z.n.v.x 5.V T._ +XyX/ !...J D `.j.G.h ",
"JXJ.1 xX].b ^.eX>X<X3.fXoXR.D KXM.6 JXG.S oXAX%.-Xt.pX6.&.z.KX2 g.IXn U.y.qXt.-Xt.5XOXb jXNX; L.KXx 5.rX X-X.X5X,XR.9 KXJ.& JXJ.",
"L.1 2 & `.S ! Y y 5XuXw Z X.z.x.= 6 s.H.J a U $.pXR Y d S b.d.m.= g.H.B ^ Y q.-X$.y } F J.: 6 3 x.K | s Y >X5XC N } L b.: 1 > L.",
"> ; d.a., U.8.! u DX#.q _ Y.S.j = 8 : v Q.5.Y U fXU w ^.U.v d.= d.j n./.T + q.pXe T 7./.g 1 m.3 f.I.<.^ w >X~.u ~ 8.P.0 2 m.> 5 ",
"IXH.; N.KXb 1.6.>X5X$X=X .{ H KXM.= zXlXn Y. Xt.-X*XoX=.P jXxX= a.LXz.X.>.OXt.0Xt.E.,.9 JXN.= B.LXn <.7.6.=XnX>X4.) r UXg.> L.JX",
"v L.l xXD A  .2XO.CX2. .ZXP.b S.F.f.bX9 Z.W.2X<.GX/ 2X,.5.r kXk.S.].x { <X(.8.aX| CXX.l.x xXz cXD F P.,X>.8X6.T.>Xo.A D cXj JXz ",
"H.P ].n I.R.!.B :X!.fX` M .XQ.V H I.B X.BXK B E.rX%XV J <X5.m C.[ C ~.'.m X.tXeX<.M ..3XW.c 3Xc X.}.P.m _.+XeX>.m 3XY...K ].x Z.",
"-.+.W.A T.,.F [.(.R.0.%XY.J +.8.=.>._ 5.G V >X+X+XT.CXO.N E.( oX_ 5.C...P.BX^.3.3.yXB ..A.O.r.~ 7.,.B (.^.3.R.).}.m o.T.C .XO.@.",
"sX( y ( aXM {.{.<.%X0.) CX,.1.0Xf s 9.,X{ CX4.-.@X+.A.DX{ %X&Xw a %X!.Z.bXC.7.*X^ OX>Xo.CXA.e T qX` R.2X=.9X%XA BXR. .AXW y t.4X",
"Y.o.y 6. .7.).A iXi.wX0.&.dX) 2.T a 7.Z %X@.;.gXw.FX,.P.tXA 6.s N 7.<.1XX.%X=Xi.pX~ 5X!.{ !.y e.-.-.).A iXp.iX8XM GX| >.2.y #X) ",
"aXAXfXpXpXdX_.%Xp.Y w.p._._.FX=XgXfXeXHXrX%X;.i.R u.%X!.eXHXaXGXFX&XUX/.Q.<X4.-.-Xr.2.ZXGXZXfX=X*XHX^.R.u.T :.eXBXU.ZXpXAXAX@XfX",
"*.*.Y ' ] 6.2XM sXFX-Xy.J BXT e.~ E e.~ ,X/.=.hXu.iX<.R.,X( XXY ~ t.! dX=.0.hXu.wXd 7X7.^ t.e t.R ' rX} yXfXyX>XF VX6.] ] R q.*.",
"p.*.+ -.fXa nXnXV T.6.1.GXX.7.yXQ C OX8.| rX9.d 7X3.<.rXE $X5Xe U uXr.d iXZ =.9Xd iX_._ yX] U E HX! [.CXZ 1..X{ PXE.! pX( + q.p.",
"7.Z 5.{ 7.Z G nXnX'.'.SX5.G I.Z...O...Y.| | tX|.U./.GX .^ _ #.A.#.( #.' +.AX/.|.tX/.Z | W.l..XW Q.l.K ].,X,X!.CXXXE C.A.V W.,.<.",
"U.n {.x X.1X.XC '.2XrX<.V :X|.l.z.].G I.!.| S tXtXdXM } &X1.[ I.....@. X( O.}.VXbXS Y.(.I.c kXF G.`.~.V 7.rXCXY.Y 6.3XZ.D lXh |.",
"n ].f.cXc } p nX/ GXe.] $XO.m K H.l }.t K '.).` FX! 9.E.} t |.D z.`.G { $X X#.AXM BXZ.K r lXk zXx O.} OX4.y.+X>.3X .p C kXf.mXu ",
"UXN.& N.PXm #.t.$X+Xe.*X6.O.V KXs.1 lX[.H A.#Xy.0X4.4Xo.V `.MX> s.xXS...@.=XXX4X&XQ.A.c PXjX> M.UXt t.t.:.wX9.7X7.O.[ PXf.= cXmX",
"m.6 4 1 k &./.d w iX3.+ $.D.S.- 6 6 4 f.S.XXu p fXQ y D.`.x.4 6 4 5 c.kXO.e #.sXy y XXZ.f.3 7 3 k S.Y.E w 9X_.q ' 5.l.k 2 4 4 m.",
"M.4 4 : c.L <.i i 7X0.i } O.S.x.3 3 m.N.D.} p ! fX( C A.v.c.d.3 3 g.b.Z.[ U r.4Xa Y +...N.2 8 < c.l.O./ f 7X_.M y Y.l.g.: 4 6 L.",
"IXJ.* NXlXt R.aXeXrX0.u.;X;Xx UXB.; UXZ.n Q.gX:.wX4.AX~.L z.IX> h.IXD l.oX9Xe.qXu.u.,.n bXcX% K.vXt XX$X%X7X,X{.VXI.h UXc.; MX`.",
"I G.n.v.n P.| !.M yX@X_ A.A.[ c b.v L i '.L 9.T hXT >.) <.F P l.l.n L <.>.3.-.pXd ^.P.U.r Z.j.v.C ' W XX1.^.rXC.].K L b H.D |.I ",
"|.L ].n /.}.J n rX%X%XE.J ~.A.W.J }.S <.(.S Z 8X+XyX| M +X=.N 5./ <.| /.i ^.ZXR.rX/ V 3XI.K '.W o.Y.~.G ^.<X#X!.b 1XI.P.B [.n &.",
"/.b #XN ).S C.SXo. X7.<.tXF W.Y.( ) | !.M R.yX_ %X) BXY.=.3.r.~ ~ &X) s rXY...,XO.DXO.V bXB #.Q 5XX.G {.<.oXR.T.CXA L }.( >.S /.",
"&X-.O %.yXN !.Y. X*Xu.4.}.}.) pXQ q 5XY.P.:X1.y.@X&X,.1X| T.OXe e uX .R.(.R.&XyXe.5.#Xo.:X.Xe Q 4XN 1X/.0.i.@X-.5.,X( =X$.O y.&X",
":.y.] %.e.oX#XY.pXe.i.@X,.).4.e.%.XXT.Y.bXW.2.pX;.uXQ.Q.tXY.>X' t.1.:X,X,.%X*X;.pX' >X,XT.T.#.t.2.OX(.,.9Xw.i.0X<.,Xy.q.t.#.t.e.",
"eXiXpXuX@XpX^.!.-Xq.w.y.P.tXFXOX4XFX%XdXCX5.u.wX] 0XR.[.BXaX5XsXyX4XGXtXU.+X+X;.*X;.^.ZXZXsXuX5X-XpX:X<.9Xw.w.9XE.[.gX0X5XAX=X&X",
"3.>.X r.8._ aX{ =Xi.wX&X,.1Xs OX( X eXa ,X.XT 9Xi.pX{ R.^.|  Xt E 8./ tXS ^.*X*Xi.3.%X5.{ ~.q #.q.] 2X>.@X9X*Xr.| PXd 2.6.  7.^.",
"dXa E E aXJ Q.SX{ %X,.Z UXJ :XaXE p 5.ZXb rX7XZ +X=.[.VXA >XE.Y a >X7.A HX7.5.+Xd gX/.M GX{ p / FXM ,.SXA ).8.@.PXZ.Y.yXQ Q 6.%X",
"6.'  X} Y.(.b |.CXU.tXBXX.I.B E.O.Y.X. ./.b ,X7X>.tXtXM R. .Y.T. .T.>. .S eX).R.dX<.M [.P.Z.;X{ L /.&.P.BX[.E.DXZ.Z.{ 5.O.Y.>.=.",
"a V ].x A ^.Y.J <.SX7XS J W.[.n F ].i L '...>.3.gX9.=.B 9.| B K J x P.E.A ` 7XgX<.s /.R.V r ].n L <./.S ) <XGXA ..~. XN K `.b Z ",
"I.lXg KXB M W.AXX.rX3.+XCXO.x ].jXg LXn K W.eX) gXS CX1X5.r xXD z.VXx O.aX8X=.tX5.DXP.X.F KX> MXL b ~.CX3.&X^.R.vXY.t P.xX$ KXn ",
"IXh.; a.KXH } Q #XrX+X8.Q V Z.xX2 d.c.mX[ A.@.W.DX@..X[ F cXK.2 1 zXb.k.[ A.!.CXT.O.[ h KXf.2 5 IXH Q $. X,XoX^.[ O.l.MXa.d.g.MX",
"< 4 5 : g Z..X( X uX2.X #.;XZ.$ 4 4 j j kXA.m y DXE q '.kXg 2 5 4 * k.;XA.e O.DXq C 3XkX- a.7 4 $ Z.XX]   +X8X  6.~.L , 1 4 2 2 ",
"NX5 < s.lXS ( Y +.0Xu.R Y Q ..cX< 5 j.lXn O.( ' pX;.Q O.m lXB.; ; K.jXG E 2.;.qX5.( V F mXk 5 1 lXm +.Y ] p.u.=.N / Z lX5 < g.MX",
"zXNX: MXG.M 6.sXoX&Xw.wX5XT.x lXK.; JXn Z.T.dX-.pX^ GXT.| 9 UXs.H.MXh C.4X*X-.wX1.aX#XC D KX% NX].C } pXu.u.3.&XAX@.t }.K.; MXc.",
"D k.b.j.D ~.O.{ o.rX^.A ( o.{.D b.jXh ,.'.o.a 7.eX^./ W (.X.v G.z.h [.} /  .<XdX7.Z | [.S.v H.j.j.C.W./ } rXaXV [ A.'.x b.F.n.D ",
"W.[ ]...~.W.X.X.[.}.,X[.{ W...I.H I.Y.J (.i _.tX^.%XR.M E.| { W.K R.=.8.s %XR.(.^.<.V Y...Z.{.l.U.U.P.V 1X}.,X3XZ.D.O.W.Z.W.X.,.",
"qXp +.( >XZ U.BX| ^.>.3.SXJ ,.4XN ` -.8X/ (.7Xd 9Xd ,X_.s u.y.~ T y.2.s gX3.9.+Xd HX,.) aX` / a ZXS L GXA oX1.5.PXC 4.@XW / ^ u.",
":.;.O 2.4.-._.5.<XpXiX3.<.2X>.y.Y O u.` ,.R.3.pXwXyXo.(.u.-.;.O e i.Z eX<.<.+X9X0XA rX>.1.oXO ] 6.) tXS yX9XuX8.{ CX( e.~ q u.w.",
"8Xy.=X-XuX8XR.T.-XR u.u.[.!.yXOXOX*X>XaX2X:X X*XY sX3X].tX%X4X5X0X$XaXR.).aX X#.uXt..X2X3X>X4X-XOX-X:X^.@X;.:.qX(.[.yX9Xr.=X9.u.",
"8.9X+Xe.4.aX>X .uXq.hXr.o.BX=Xr.OXOX%XY.DXT.+.pXOXsXo.A.SX%X XOX XoX(.SXX.:XaXOX5X#.E.CX:X#X6XOXt.uX:XA uXu.wX+Xo.1XeXr.OXi.@X9.",
"y.e.. q.@XN BXY.^.y.3.y.'..X~ 0XY X &X XO.rX1.:.9X+X~.;X!.@.$Xq y AXW !.:X5.$X@X4.4.%X} :XE.o -.i.f DXY.8.u.9.7.1X{./ OXR @ q.i.",
"OX~ :.Y $X<.Z.PXS u.0.>.PX[ 4.4.! /  .#XV :X8X` y.>.2X;Xp #X6.} E 6.T.O.nX!.` ^.>.yXY.J 2XE +.s wXR [ DX=.0.0.<.bXA.O.$X^ ] ~ t.",
"Q.G W./ R.(.G A ZX+X0X&XV ~./ :XZ.A.o.P.3XJ ,.GX,XtX:XV #X2.W XX+.Y.A.Y.C rXdX%XdX<.V Q.C.C.'.{ >.^.O.} 8X9.fX5XK Q.C.Y.V bX..Y.",
"v n.v.v.x o.5.Y.Z fXoXT Y.C.I.x b.S.D B P.C.X.C.GX .<.} <.J H z.K x I.P.o.A #XAXN ,.A.D.D v.j.k.x X...>.! uX&XW Y.[ P.F b.j.z.h ",
"NXNX; xX`.F T.fX X5Xr.yX<XC.c KXB.2 JXG.G !.nX@.5XXXuX3.&.n IXs.j.IXh P.<XyXr.qXOX5X~.c v.JX& zXlXF (.<XOXr.$X5X5XR.r LXzXa.MXJ.",
"NX: 2 a.jXS / s @.5XOXs / ..z.N.3 4 h.`.F W #.#.5X#.a Z &.|.g.< ; c.H.D N ] ] uX$.E ..H xXa.m.= F.l.B ! ( yX;X} p  .I.v.& 2 d.L.",
"; 5 < 5 , G.+X! q 5X6.X 5.[.H & 7 6 > z P.!.e e FXU e 0.&.> > 5 2 ; j.}.6.o %.5XO U !.{.g * 6 d.g Z.3XZ o OXaX  5.,.L , a.4 : 5 ",
"IXh.2 g.UXn <. .:X2XOXoX| V Z.PX5 2 J.}.P  . Xt.5Xt.y.) P lXNX: > JXG.F ^ i.t.-X6X2.@.9 KXB.2 m.KXH { } 0X#X.X>X( ) G KXf.: L.JX",
"n.xXj mXD n ,.dX5.aX9.7.rXo.r D.N.f.lX9 L /.BXX.ZX5.,XR.| x mXV.b.kXn | %X&X .AX/ ZXY.X.h KXj xXH c Y.>X+X&XR.(.rXX.n l.cXj mXl ",
"K H `.D J }.Q.m X.^.iX_ M .X3XC z.Z.S <.,X<.i ).rX,XJ A tX..x D.k.F C.#XZ A rX,X!.r <.,.Q.9 `.H ..!.[.s ` +XfXA M [.R.J H kXx C.",
"#XW !.[ ^.,.n /.,X%X=.7XY.W ( E.{ ;XZ =.| A rX_.).) ,X| ) 5.A.A.~.@.T./ ! <XR.,X_.tXZ  .5./ :XO.T. .p R.oX9.3.tXQ.B  .(.W ~.@.A.",
"uXY p ' eXV 1XvXA 7X3.` ZXO.2.AXV w &XyXs ,X_.` eX7.Y.2X! oX:XC u AX@.! dX7.7.E./ ).%Xa AX5.t / yX] W.BX=.9X>.>.SXX.} dXQ U ] -X",
";.q.O r.+.5.!.| eX8XgX9.{ aX! 4./ y oXa %X6.-.pX9.gX2.Y.8XN ,Xt V %X} <X! 6.gX@XfXa 0X6.! 5.y  .' ( 2Xs yX+XiXeXm GX .' +.w t.] ",
"*XpXpX4XpXyX#X'.rX` 3.&X#X#XHX&XZXGXy.FXyX6.#X8X^ +X<X6.9XgXeXAXyX&XdX<XoX&X2.^ @X=X8.AXAX>XHXyXdXfX[.:X+X3.>.+X$X#XfX=XGX-XqXqX",
"4.-.~ 6.( &X.X} aX+XgX4.} ZX .4.+.#.2.;.aX.X{ AX,XrX .7.hXR e.T -.4.' aX .^.FX%XdX/ :X>X6. X~ ' _ %X<X/ 9X@XfX$X/ 5Xe. X~ +.e.;.",
"u.-.X E.&X!  X>X .OX3.8.eX .) aXQ O -X4.W 2X!.P.,XR.(.8XT :.0X+ # wX1.( BX,.<.).>.%X3X[ >X X@ ;.aXM .X,X-.4.oX5.4X2.! yX( X =Xy."
};
