/* XPM */
static char *_3d2afdc21cb46148bb5b09ae40874efD07bELEj1rIlQkSZ[] = {
/* columns rows colors chars-per-pixel */
"64 64 251 2 ",
"   c #3E9EEB",
".  c #329DF4",
"X  c #3D9BF6",
"o  c #2C9EF6",
"O  c #3BA3EC",
"+  c #2EA5FF",
"@  c #2CAEFF",
"#  c #23A2FF",
"$  c #3CA1F4",
"%  c #34A6FE",
"&  c #3DA5FB",
"*  c #34ABFF",
"=  c #3CACFF",
"-  c #39ACF5",
";  c #2BB0FF",
":  c #28B6FF",
">  c #34B2FF",
",  c #3CB4FF",
"<  c #3EB8FF",
"1  c #36BBFF",
"2  c #469CD8",
"3  c #649FDB",
"4  c #54A4DC",
"5  c #4FA4DD",
"6  c #63A5DC",
"7  c #69A9D7",
"8  c #73B0DD",
"9  c #469CE6",
"0  c #529CE3",
"q  c #45A2ED",
"w  c #4BA5ED",
"e  c #4CABEE",
"r  c #47A7EA",
"t  c #5BA6E5",
"y  c #5CA9E6",
"u  c #54A5EA",
"i  c #53ABEC",
"p  c #5BABED",
"a  c #55A6E6",
"s  c #4AB0EE",
"d  c #43A5F3",
"f  c #4BA5F2",
"g  c #44AAF5",
"h  c #4BAAF4",
"j  c #44A6FD",
"k  c #43ACFE",
"l  c #4CADFD",
"z  c #4CA4FD",
"x  c #53ACF3",
"c  c #5AADF3",
"v  c #52ADFC",
"b  c #5AACFD",
"n  c #57A5F7",
"m  c #44B2FF",
"M  c #4CB3FE",
"N  c #44BBFF",
"B  c #4CBAFF",
"V  c #48B3F5",
"C  c #55B1F4",
"Z  c #5BB2F4",
"A  c #54B4FD",
"S  c #5BB4FD",
"D  c #53BBFF",
"F  c #5BBBFF",
"G  c #5BBAF2",
"H  c #5CB5EF",
"J  c #64ACE4",
"K  c #6AABE3",
"L  c #64ADEC",
"P  c #6CAEEB",
"I  c #71ABE4",
"U  c #7CAEEB",
"Y  c #65B1EC",
"T  c #6BB4EC",
"R  c #63BBEF",
"E  c #6AB5E8",
"W  c #72B2E3",
"Q  c #74B7EC",
"!  c #72BCEC",
"~  c #7CBBEE",
"^  c #7AB9E7",
"/  c #63ADF3",
"(  c #63AFFA",
")  c #72AEF2",
"_  c #63B4F4",
"`  c #6CB6F1",
"'  c #6BBAF4",
"]  c #63B4FB",
"[  c #63BBFF",
"{  c #6BBDFD",
"}  c #63BCF6",
"|  c #75BBF3",
" . c #7ABEF3",
".. c #74BEFC",
"X. c #7ABEFC",
"o. c #77B6F6",
"O. c #4BC1FF",
"+. c #53C3FF",
"@. c #5DC2FF",
"#. c #5BCAFF",
"$. c #7CC0ED",
"%. c #63C2FF",
"&. c #6CC2FF",
"*. c #6CCCFF",
"=. c #65C8FC",
"-. c #7EC3F6",
";. c #74C3FE",
":. c #7BC4FD",
">. c #74CBFF",
",. c #7BCBFF",
"<. c #77C7F4",
"1. c #6DD3FF",
"2. c #7CD3FF",
"3. c #75D2FF",
"4. c #89BAD7",
"5. c #84BDED",
"6. c #8AB9E7",
"7. c #91BFE9",
"8. c #84BDF6",
"9. c #93BCFE",
"0. c #AAC6DD",
"q. c #BDCFD3",
"w. c #86C8ED",
"e. c #94C4EC",
"r. c #9CC4EA",
"t. c #9AC9ED",
"y. c #97CDE9",
"u. c #84C1F5",
"i. c #8BC4F3",
"p. c #83C4FC",
"a. c #8DC7FF",
"s. c #84CBFE",
"d. c #8BCCFF",
"f. c #89CDF4",
"g. c #95CBF6",
"h. c #9BCCF4",
"j. c #94C4FB",
"k. c #93CCFD",
"l. c #9CCEFB",
"z. c #93C5F2",
"x. c #84D3FF",
"c. c #8CD3FF",
"v. c #8DDBFF",
"b. c #93D3FE",
"n. c #9BD4FE",
"m. c #93DAFF",
"M. c #9BDBFF",
"N. c #9CD4F2",
"B. c #9AD4E8",
"V. c #A1CCEC",
"C. c #A7CAE6",
"Z. c #A9D3ED",
"A. c #B7D5EB",
"S. c #A3CCF1",
"D. c #A3CEFB",
"F. c #A5D2F5",
"G. c #ACD4F4",
"H. c #A3D5FE",
"J. c #ABD5FC",
"K. c #A3DBFF",
"L. c #ABDBFE",
"P. c #A9DAF4",
"I. c #B5D6F3",
"U. c #B3D9F5",
"Y. c #BCDBF5",
"T. c #B3DCFD",
"R. c #B9DDFC",
"E. c #B9D7F7",
"W. c #9BE6FF",
"Q. c #A4E3FF",
"!. c #ABE3FF",
"~. c #ACEAFF",
"^. c #A3EAFF",
"/. c #B4E3FF",
"(. c #BBE2FE",
"). c #B4EAFF",
"_. c #BCEBFF",
"`. c #BCE6F6",
"'. c #BBF2FF",
"]. c #B8F5FF",
"[. c #CCD7DF",
"{. c #DBDDDD",
"}. c #DEEBD1",
"|. c #F9E9DF",
" X c #FEF2DD",
".X c #FFFADE",
"XX c #FFF4D6",
"oX c #C3D9EB",
"OX c #C7DBE9",
"+X c #D3DBE4",
"@X c #C2DFF6",
"#X c #C3DCFB",
"$X c #C7DAF8",
"%X c #CDE1ED",
"&X c #C4E5EE",
"*X c #D9E5EA",
"=X c #C4E3F5",
"-X c #CDE3F6",
";X c #C4E5FE",
":X c #CBE5FC",
">X c #C4ECFF",
",X c #CBEBFF",
"<X c #CAEDF1",
"1X c #D4E4F3",
"2X c #DDE5F2",
"3X c #D4E9F6",
"4X c #DDEBF5",
"5X c #DBE5FC",
"6X c #D3ECFD",
"7X c #DBEDFD",
"8X c #D3E7FB",
"9X c #C4F2FF",
"0X c #CCF2FF",
"qX c #C8FCFF",
"wX c #D3F2FF",
"eX c #DCF4FE",
"rX c #D4FAFF",
"tX c #DCFBFF",
"yX c #DCF1F3",
"uX c #ECECEB",
"iX c #E5EAEA",
"pX c #F3ECEB",
"aX c #F9EFE3",
"sX c #EEFAEC",
"dX c #FFF5E4",
"fX c #FFFAE4",
"gX c #F5F3EB",
"hX c #FEF5EC",
"jX c #FFFBEC",
"kX c #F6F6E5",
"lX c #E5ECF4",
"zX c #EBEEF3",
"xX c #E2EDFC",
"cX c #EAEFFF",
"vX c #E4E7FA",
"bX c #F2EEF7",
"nX c #ECF2F5",
"mX c #EDFBF6",
"MX c #E4F4FE",
"NX c #ECF5FD",
"BX c #E4FDFF",
"VX c #ECFDFF",
"CX c #E4F7F3",
"ZX c #F3F4F4",
"AX c #FDF5F3",
"SX c #F4FCF5",
"DX c #FEFCF4",
"FX c #F3F5FB",
"GX c #FCF5FC",
"HX c #F4FEFE",
"JX c #FDFEFD",
/* pixels */
"C ] v x./.k._ ).>.F t A c.7XFXDXJXa.p ;X;./._.-.&.c.wXA.R.VXJXJXDXJXHXH.R.MXv.{ :.=XwXD 2XE F JXDXHXMXM.[ J M @.OX&.*.OXG.+.x P ",
"B , p j.JX6XX VXhXMX;X>.M y { b.B.- W.hXwXX.j.$XiXjXZXc.m p.7XJXDX;X;.m !.ZXDXdX=XS.' @XjX^.< z.N.;.p = %.R.eXjXHXD ,.fXHX@.f [ ",
"k A Y.| I.DXZ J.JXHXfXDXJXwX>.S j p.JXVXVXVXjXHXJXJXJX6Xa g g ,.*.r g u tXDXhXHXBXGXrXJXVXHXV.g F >.;XFXhXjXSXJX,Xf eXdXi.:.,.k ",
"3X] FXVXVXJX*.{ DXJXJXJXJXJXFXDX).yXdXHXDXJXAXJXHXHXJXwXx :.o.% %  .*.L MXJXnXBXJXgXJXjXJXJXFXL.gXZXJXGXJXJXHXJXe.C BXHXMXjXI.D ",
"DX!.BXGXSXDXR.f tXVXHXDXDXJXJXHXr.J.JXAX.XVXJXjXjXJXdXVXF p.JXG.G.JX&.&.JXDXJXDXjXHXJXjXGXHXg.I.JXDXHXJXJXHXHXVX%.d.JXDXGXJXI.lX",
"x F h.MXHXDXFX1 Y.JXJXJXJXJXJXwXm _ HXJXJXHXJXHXDXHXDXzXF S JXJXJXJXe D nXjXJXJXZXJXHXJXHXbXD B BXJXJXJXJXSXDXMX= >XJXJX4X/.*.x ",
"P.d.F 4 b 2._.I i.DXJXJXJXDXDXl.m , M.jXNXJXJXJXHXHX6X[ * n.nXJXDXVXc.% { BXVXSXJXHXVXGXJXl.B & K.DXhXDXDXDXDXn.p 8XC.F N k ~ H.",
").dXGX,XK.Y S = m HXJXJXJXJXNXm r.D F DXJXDXDXJXJX7X[ & S.JXHXJXDXHXAXd.=  .eXJXDXHXJXJXZXM k.h.S FXJXVXHXJXJX{ = = +.e.:XBXDXMX",
"s.DXGXVXJXJXsX(.r.)._.OXc.a.h @.HX>.* @.s.H.E.6X,XS V e { :.m.DXDXM.-.} d k F ,X_.8Xn.6.Z M DXvX2 +.>.D.(.-XeXz.OXxXHXjXJXVXJXF.",
"Z HXJXHXJXGXjXVXDX4XF h v { &.6XDX3Xs.T 6 M + X.VXNX5X/.V.<.& cX;Xo x.G._.MXuXdXW % @ d.L.Q.FXHX>XC.! N % U eXVXHXJXHXDXJXJXJXu.",
"g 0XGXJXJXGXDXJXVXjXtX&.k MXjXZXdXDXJXBX| M s.VXFXfXDXHXDXVXb <.p.h BXDXHXDXjXDXHX&.m u.VXJXDXJXJXJXi.M ~ JXJXAXHXJXHXJXJXJXMXS ",
"A M.JXjXJXJXDXGXHXJXDXZXo.9 >XHXHXHX6XQ o p.HXDXJXVXJXJXDXDXL.m l ,XjXJXHXHXVXHXJXeX4.f  .jXDXJXHX<.j o.DXjXVXJXHXDXJXJXJXJX(.M ",
"c.o.JXjXJXJXHXDXjXDXHXjXVXN v.dXHXDXL.* 2.FXDXHXjXJXJXSXFXDXBXM A HXdXJXHXJXHXDXVXJXJXk *.DXJXHXAXF O.tXJXJXJXfXJXJXJXJXDXJXN.[ ",
";X/ VXDXJXJXVXJXJXJXCXHXJX6 3XmXb.lXBXq ' JXdXJXJXGXmXHXJXGXjXF.#XJXJXJXJXDXfXJXJXjXHX&.;.BXu.:.VX;.~ ZXGXHXJXDXJXJXJXJXJXHX-.c.",
"nXZ ,XHXJXGXHXJXJXMXHXJX6XB u.M % 5 i.S B tXfXHXBXJXGXDXJXSXjXbXSXhXHXJXDXJXDXHXJXZXqXg S ] = k s F ) VXJXHXBXHXDXHXDXJXJXBX_ ;X",
"jX=.n.HXGXDXHXGXJXjXJXJX+X; l Z K.b.l > J MXJXJXDXHXVXDXJXHXGX^.;XjXVXVXjXHXHXDXGXDX(.M v ( b.V.D g i _.AXAXJXfXJXHXJXDXAX>Xx HX",
"JX0.;.VXnXJXJXJXJXjXJXAXL.= M.MXVXJXuXy.l L.jXGXHXHXVXdXDXHXjX;.d.DXJXSXjXVXHXJXDXJXl.h l.pXJXVXwXx.i L.JXjXDXJXjXJXHXHXDXV.&.DX",
"gX;.C VXGXDXfXVXHXJXAXVXM.6XdXJXZXDXDXBX>X,XmXJXHX.XuXHXJXVXHX] ! JXJXJXJXJXhXJXDXMXwX>XVXJXjXFXJXDXOX!.VXHXVXJXFXJXJXJXHX..M ZX",
"{ w wXI n.VXXXJXHXGX).Q eXJXJXhXJXfXJXJXDX3XJ.VXfXHXJXDXHXJX=Xm B yXHXJXDXHXJXfXBXP.MXJXJXJXdXJXGXDXDX1X| _.JXJXJXJXNXk.u.tXJ B ",
"M ].JXp.l Z K.VX8X| , 8 VXVXHXJXJXjXHXNXjXHXo.>.tXJXjXJXJXJXc.Z S K.JXjXJXSXDXrX;.i.VXDXHXJXSXJXHXNXJXBXJ l | 6XZXm.[ 4 g.JXMX+.",
"NXJXJXn.* Z k F h c = | HXDXDXJXHXSXJXJXJXJXD.= +.:X XHXJXHXp L.j.o.VXGXJXDX%XB * R.JXJXJXJXJXHXDXJXJXHX' = M x { k D a T.GXjXJX",
"DXdXDXL., C.;Xc [ 6X,.{ DXjXJXAXJXJXhXJXHXdXNXD Z e /.JXjXBXu 6XY.' BXfXHXn.v b F HXjXHXJXDXJXJXDXVXDXJX{ x.>Xb [ ,X] M >XHXJXdX",
"HXJXJXeXq ..JXGXJXHX` L.HXJXJXHXDXJXDXJXJXhXHX5.~ !.l <.hXT.m JXsX+ rXhXT l m.o.l.JXjXDXJXDXDXJXHXJXDXBXb.e.NXFXSXJX=.q VXBXBXJX",
"VXdXGXp.h +.HXJXGXHXF l JXDXHXJXJXGXHXVXGXJXVXY.g HX,XA &.;.p.JXJX;.Q G B wXBXs 1XVXSXDXHXHXJXJXfXBXJXuXC [ JXDXGXHXc l n.JXfXHX",
"DXBX:.i ..rXfXVXHXAXVXT c tXDXHXDXDXHXHXHXHXHXHXl h.fXmX=.= z.HXHX:.- #.NXGXm.B HXVXHXJXDXjXGXHXHXfX0Xv W VXJXHXBXjX9XS r x.HXdX",
"FX:.; A j.5X|.jXJXMX%Xb.N S xXjXVXHXJXjXJXDXdXjXi.{ VXjXR.S k e. .z i `.hXJX7 G.jXXXDXJXJXHXJXDXdX7XM N K.2XHXDXJXaX7Xl.v > d.DX",
"K.;.{ Z M @ F zXnXB = x M c L.9X^.OX3X,X:X:XrXtX!.# ~.3X;.i i < 1 6 v x.*X!.F (.tXwX8X>X'.,XOX/.'.m.Z v M = c JXiXM @ l / _ ;.!.",
".XJXGXxXeXx.= E.t._ '.nXJXJXgXDXS.m % Z A l c C i S f A B x ^.g R n.A k M , H z h x m A L & M n.JXNXHXDXlX).J T.U.= c.6XnXDXJXjX",
"JXJXSXHXJX5Xl A , ).JXfXdXHXVXjXGXMX..& H.HXHXzXuXs.m I l l oX} 4.).X F c ; x.NXuXVXBXb.X  .FXJXfXJXHXhXdXJXn., M l HXDXHXZXHXJX",
"VXJXfXJXSXJXM.g | JXJXJXdXJXVXGXJXJXJXK.% { MXJXJXT.+ ,.).F [ @.&.M s.>XS h *XGXVXeXQ d !.JXJXHXSXJXJXDXJXJXtX` g M.JXgXJXjXJXBX",
"JXhXJXGXAXDXeX& Y.jXDXHXJXJXVXJXJXJXAXDX0XB k A.rX:.h i ..s.k k + A s.5 b / f.wXL.j F MXDXDXJXJXJXHXJXHXHXJXDXG.h eXGXZXJXJXDXJX",
"JXDXJXJXJXFXDXQ.VXJXHXJXJXJXDXJXDXJXHXHXjXdXL.; h v 8 3.:.K m $XT.x R x.p.b ; F M R.DXJXHXJXJXDXDXHXJXDXHXNXJXeX!.jXHXHXJXHXDXJX",
"JXDXJXJXHXFXjXL.VXHXHXJXJXJXAXJXjXJXVXVXJXhXU.= p c _ d.k.x Z -XR.= ' b.s.l , K C ).JXJXJXGXJXDXDXGXGXjXHXJXJXeXR.jXJXVXJXJXDXJX",
"DXhXJXJXAXDXeX% ;XjXhXHXJXJXVXJXHXJXjXjXeX@.k U.).&.c = A :.+.% = D p./ l S s._.,.q 5.VXJXVXJXJXJXHXJXSXVXDXAXY.l NXDXZXJXJXGXDX",
"BXJXfXJXAXHXM.k Q JXDXJXfXJXVXJXVXJXDXT.$ Q MXHXJXY.w F 9Xg.A { ..k w.>XB f 2XHXJX0XF h ;XJXHXVXHXHXZXDXJXDXVXE M L.JXHXDXfXJXVX",
"JXJXDXHXJX3Xk S , ).FXfXdXHXVXfXDXNX;.& n.VXVXnXHX,.> Q Z % R.` 4./.  S ] l G.mXDXVXwXd.$ 5.ZXJXfXHXVXDXdXJXK.= V b tXDXGXJXHXGX",
"dXJXJXyXeXd.j T.e._ qXHXJXHXuXDXh.m * Z A M h l p w N p k O.L.m [ W.V m k C K l m Z C A Z = D T.DXzXJXGXHX9XL H.N.k M.eXFXJXJXdX",
"K.;.{ _ M * F nXHXl * w F &.J.9XQ.oX@X).(.;X9XwXL., !.{.&.L 7 > 1 6 l ,.#Xn.k W.1X'._.@X(.Y.Y.T.9Xn.{ S v + c JXxXV * v ' _ ;.).",
"NX-.* S d.6X|.jXAXMX%Xg., x 4XjXJXHXJXSXHXJX XfXa.%.HXJXk.v = u.X.j G =XjXBXp K.DXXXjXHXHXJXJXFXjX-Xh , K.+XnXGXDX}.:X9.D * 9.VX",
"jXBX&.f ;.BXfXBXHXJXVX` Z tXJXJXJXJXJXJXDXJXHXVXC E.jXMX&.* d.GXVX&.d c.JXGXu.' JXVXVXDXDXJXJXJXHXDX>Xh -.VXJXJXVXHXtXI - 2.GXjX",
"HXfXDX<.k T JXJXmXAX+.x GXSXGXJXJXDXHXHXDXJXBX@Xh jX).M { F c.HXDX,._ S { ZXeX$ 7XVXJXDXHXHXJXJXjXVXGX3XM { JXDXjXrXM x b.hXJXHX",
"JXBXVXwX& d.JXSXJXGX` T.HXVXJXVXDXAXDXJXJXjXHX5.X.H., X.fX!.g JXHX# :XGXF ` R.F e.JXjXJXJXJXhXDXJXHXJXVXk.i.BXJXDXJX{ x xXHXHXJX",
"fXJXCXR.* 8.,X%.{ xX>...DXjXJXJXJXJXjXGXHXDXNXA _ b b.HXhX<Xp eX/.L tXDXVXn.A A F JXjXHXJXjXGXJXhXHXjXJX{ s.,XS ..6X~ m 6XNXfXjX",
"nXfXJXL.g [ d C - C , :.HXJXjXGXHXJXJXHXJXJXT.* O.,XfXHXJXJXc J.d.^ HXJXJXGX).M * ;XJXJXJXJXHXHXJXJXDXVX{ M A g S k S = /.JXjXVX",
"#.BXJX! 0 S K.HX`.R , W JXHXHXJXJXSXJXHXJXVX5.{ rXHXDXHXDXJXc.S M L.jXDXVXJXfX9X{ i.HXJXJXHXJXHXJXVXHXMXK m { 3X4Xv.A f b.AX].S ",
", 7 BX=.H.BXjXHXJXAX).K 7XJXDXDXJXfXJXHXJXMXG.BXhXHXJXDXHXGX&Xm m nXAXHXJXJXjXjXMXV.VXDXJXJXjXJXDXSXDX1X` ).JXJXJXjXVX5.g.1XF P ",
"NXS _ BXJXJXjXVXGXJXGXBXW.xX.XHXJXhXDXVX>X,XNXGXJXDXGXJXJXJXBXZ ` JXHXHXDXDXhXJXJXMX6X>XVXDXDXHXHXfX+X!.tXJXFXJXVXjXJXJXMXZ %.hX",
"GXa.f.DXVXGXjXDXJXjXjXAXD.n M.HXVXJXiXH.l H.JXDXjXVXHXjXAXJXGX..c.jXJXHXDXJXGXVXSXJXg.A L.ZXJXVXMXc.c T.JXDXDXDXJXGXHXSXJX%.Z.VX",
"HXE Y.HXJXDXJXJXJXDXhXJX(.j m F G.K.A d x NXHXGXjXHXHXjXJXVXJXW.).jXBXHXdXJXJXJXJXVX).a v v Q.P.c * = iXJXDXDXDXJXHXDXJXJXH.@.jX",
"0XY tXJXHXJXHXJXJXSXJXJXwX/ F f B . M D S tXHXDXVXJXHXDXDXJXdXlXGXdXJXJXDXJXjXBXJXDX,Xc =.{ 9 m D >.F tXJXGXBXJXJXHXJXJXJX;XC FX",
"M.Y HXJXJXJXJXDXJXHXHXgXBX( c.VXT f.wX&.Q JXDXJXJXjXJXJXDXDXJXE.#XGXJXJXJXDXdXHXgX.XFX' c BX$Xd.GXT.I JXDXGXHXDXJXHXJXHXDXVXi ,X",
"*.i.JXDXJXHXJXDXhXHXJXfXtX= <.dXHXJXDXO.&.FXDXHXjXJXHXHXHXhXVX, D HXaXJXJXJXJXJXHXJXtXF M :XDXHXAX2.B BXJXGXjXDXJXJXJXJXjXJX' c.",
"A (.JXAXJXJXJXJXDXjXpXJX4.j ,.HXAXJXjX_ 2 H.HXJXJXVXJXHXJXDXT.= m >XjXDXJXHXHXJXAXVX-.g ..eXDXJXJXP.v -.DXGXnXJXJXSXJXJXjXJXn.S ",
"x BXHXDXDXHXJXJXHXDXBXZ k p.HXHXDXJXJXBXp.+ s.HXJXDXDXHXGXVXu d.X.b VXJXHXDXjXSXHX .l ' BXAXDXJXGXJX#XO s.VXjXnXJXDXJXHXJXAX0Xf ",
"..HXJXJXDXJXJXVXVXeXE = k j.q.MXHXHX!.T.>.;    .VXMXMX_.Z.s.$ eX:X. c.A.>XBXlXsXE   m [  .J.tXJX_.<.u.m = ..pXHXBXjXJXJXJXGXVXS ",
"M.hXJXHXDXJXHX=XV._.,XP.b.&.D l JX{.m ` { M.[.>X;X[ g h &.{ M.DXJXv.! } l l [ 6X)./.l.;.D $ H.JXS B { m.[.)._.0.:XjXGXHXHXJXHX:.",
"wXhXmX0XJ...M = F JXJXHXHXJXBX= G.,.A hXHXDXHXJXHX%X( k G.JXSXJXDXHXJXd.= Q 7XDXJXFXJXJXNXB _ a.C HXJXJXHXJXVX= z B %.P.eXgXJX!.",
"A.c.+.a u ,.L.8 h.jXjXJXJXDXDXg.d m /.DXgXHXhXJXGXHX>XG - M.JXGXDXVXb.% { tXHXSXJXDXHXAXjXd.M m K.JXJXJXDXjXjX7.^ /...c b D s.Y.",
"u F b.iXHXJXxX@ -XDXJXJXJXJXJXwXN v JXJXJXHX XJXJXHXAXlXM ] DXJXHXGXe D cXjXSXJXHXjXSXHXDXbXS M VXDXGXJXJXJXHXT.: kXjXHX$XH.F u ",
"dX~.BXDXSXJXG.x BXVXHXJXJXJXJXHXh.M.VXaXJXHXJXJXjXJXAXFX[ p.HXZ.U.JX&.&.JXDXDXJXHXJXHXDXAXJXx.0.HXHXJXJXAXHXVXBXk :XdXBXDXJXl.NX",
"%XZ VXHXHXHX+.:.jXHXJXJXJXJXJXDX).MXSXHXDXJXFXJXJXVXJX9Xh 3.X.j * $.*./ lXJXNXVXJXZXDXJXVXDX>X'.DXHXJXJXJXJXJXjX{ >.JXBXVXjXs.h.",
"M B Y.~ =XmXA @XJXFXhXDXHXwX,.S f V.DXVXjXHXJXJXJXAXDX0Xi e q >.=.2 j n tXDXAXHXJXJXHXHXHXJXg.g ] p.wXJXDXGXHXJXK.9 jXMXX.C.1.r ",
"B , / S.JXY.  JXjXBX,X,.l y [ b.t.g ).DX*XQ h.4XkXJXSXH.b | :XSXDX=X;.m ~.SXDXdX+Xg.^ zXDXm.f g.c.F y M >.6XHX.XyXh 1XJX>X] > D ",
"p c l c.>Xp.{ (.>.S t A c.3XHXjXVX&.M -X=.(.T.&.;.M.tXC.L.VXJXHXDXJXHXh.R.7Xc.{ ,./.Q.:.;Xv i.HXjXnXyXx.A u F 2._.Z s.3XK.b S b "
};
