/* XPM */
static char *_7dbb0ac3d3d421ace7d4926a48e993bjT8BykUTcWv1MVYz[] = {
/* columns rows colors chars-per-pixel */
"64 64 256 2 ",
"   c #777D34",
".  c #727454",
"X  c #6B6D6C",
"o  c #ED3A31",
"O  c #DE3C31",
"+  c #B67B1B",
"@  c #937931",
"#  c #B57732",
"$  c #9E5932",
"%  c #C67918",
"&  c #D64A34",
"*  c #EF4A35",
"=  c #C87838",
"-  c #D97938",
";  c #CF7729",
":  c #EA7A32",
">  c #EA7C1D",
",  c #AD3E4A",
"<  c #F03B4F",
"1  c #D13B46",
"2  c #AE4E4B",
"3  c #9A754F",
"4  c #AA774D",
"5  c #8F706B",
"6  c #AE736F",
"7  c #995555",
"8  c #D8514C",
"9  c #EE4E4D",
"0  c #D16F4F",
"q  c #EF7052",
"w  c #DA5B6A",
"e  c #F5516A",
"r  c #D1756E",
"t  c #E8786A",
"y  c #F57376",
"u  c #F0706E",
"i  c #718E34",
"p  c #39996D",
"a  c #11A87B",
"s  c #2FA26E",
"d  c #399952",
"f  c #59955A",
"g  c #728E53",
"h  c #4F9470",
"j  c #6E8F6C",
"k  c #52A774",
"l  c #70AE7E",
"z  c #73A74F",
"x  c #48C374",
"c  c #908A37",
"v  c #B18833",
"b  c #C98734",
"n  c #D68638",
"m  c #D79338",
"M  c #D0872C",
"N  c #E48838",
"B  c #EE8930",
"V  c #EDA122",
"C  c #FBC730",
"Z  c #DBD13E",
"A  c #8F8B4F",
"S  c #A88747",
"D  c #B58C4E",
"F  c #B6A54F",
"G  c #918E6F",
"H  c #B18F70",
"J  c #91AF76",
"K  c #B2AE72",
"L  c #CA8946",
"P  c #D88748",
"I  c #D09451",
"U  c #E68947",
"Y  c #EA8A5A",
"T  c #F79757",
"R  c #F29152",
"E  c #D6A55A",
"W  c #D0A854",
"Q  c #EFAA54",
"!  c #D89968",
"~  c #D19171",
"^  c #F78966",
"/  c #F99767",
"(  c #E7877A",
")  c #EE926F",
"_  c #CBA669",
"`  c #D2AE73",
"'  c #F8A978",
"]  c #FCBB77",
"[  c #EFAD70",
"{  c #B2CA74",
"}  c #9BD16B",
"|  c #D1CC53",
" . c #FBC857",
".. c #FBD758",
"X. c #F3CE4E",
"o. c #D2CC72",
"O. c #FDCA67",
"+. c #FAD868",
"@. c #F9C878",
"#. c #F9D878",
"$. c #E9D072",
"%. c #F6E571",
"&. c #D8E369",
"*. c #6E7682",
"=. c #F77586",
"-. c #DE7498",
";. c #917A94",
":. c #39988A",
">. c #06B699",
",. c #11AF93",
"<. c #2AA687",
"1. c #30AF93",
"2. c #0AB5AC",
"3. c #31B4AC",
"4. c #1F9B95",
"5. c #54938C",
"6. c #6C8E89",
"7. c #53B091",
"8. c #69B799",
"9. c #71AE90",
"0. c #4DB5B0",
"q. c #71B5AB",
"w. c #6697B4",
"e. c #04C491",
"r. c #00C4AF",
"t. c #2EC2A0",
"y. c #7AC797",
"u. c #6FCE96",
"i. c #55D0B2",
"p. c #71D0B1",
"a. c #58CB8F",
"s. c #10B5CB",
"d. c #58D5C7",
"f. c #53D1CF",
"g. c #6FCFCC",
"h. c #5BDBDC",
"j. c #46BDCC",
"k. c #8E958C",
"l. c #B0948B",
"z. c #96AC89",
"x. c #87B898",
"c. c #92B28E",
"v. c #ABA785",
"b. c #AFB490",
"n. c #87BBA8",
"m. c #95B7AF",
"M. c #ACB2A8",
"N. c #AD9CA4",
"B. c #CE918C",
"V. c #EA9987",
"C. c #F89B97",
"Z. c #F08F91",
"A. c #C6A788",
"S. c #D6A886",
"D. c #DAB796",
"F. c #CEAF92",
"G. c #E9A684",
"H. c #F9A987",
"J. c #E8B789",
"K. c #FBB589",
"L. c #E9A997",
"P. c #F9A898",
"I. c #EAB896",
"U. c #F8B797",
"Y. c #F496A8",
"T. c #DBA7A7",
"R. c #CEB3AC",
"E. c #E7B9A5",
"W. c #FAB8A6",
"Q. c #F1AEAE",
"!. c #CB8CA9",
"~. c #91CA93",
"^. c #A8C89B",
"/. c #B4CC8F",
"(. c #89C6AB",
"). c #87C8B9",
"_. c #97CAB6",
"`. c #88D6B9",
"'. c #94D1AE",
"]. c #A7C4A8",
"[. c #A7C7B7",
"{. c #B0CFB0",
"}. c #A0E5A7",
"|. c #D3D091",
" X c #F9C887",
".X c #FCD788",
"XX c #FAC998",
"oX c #FAD798",
"OX c #E8CD91",
"+X c #D2E59A",
"@X c #F2E792",
"#X c #D8D9AA",
"$X c #CFD1AE",
"%X c #F9C7A7",
"&X c #FAD7AA",
"*X c #F9CAB7",
"=X c #FAD9B6",
"-X c #E8CCAF",
";X c #D5EBB0",
":X c #FBE5A8",
">X c #F8E7B9",
",X c #EAECAF",
"<X c #90B7C9",
"1X c #A7B6CB",
"2X c #F2B9C5",
"3X c #DA9CC5",
"4X c #86C9C7",
"5X c #90D0CD",
"6X c #AED2CD",
"7X c #AEE8D3",
"8X c #9BDFE6",
"9X c #CDD6CE",
"0X c #EAD5C9",
"qX c #FCDAC8",
"wX c #FBDBD6",
"eX c #EECFCE",
"rX c #DAEBD8",
"tX c #DCF6D7",
"yX c #CDE9CF",
"uX c #E9E7C8",
"iX c #F8E6C8",
"pX c #E9F5C7",
"aX c #E9E9D9",
"sX c #F2EBDC",
"dX c #FDEBDC",
"fX c #F8E6D7",
"gX c #E9F5D8",
"hX c #F7F5D9",
"jX c #F8F4CA",
"kX c #FCDBE7",
"lX c #F9DAF0",
"zX c #D6F7EC",
"xX c #D4F1EC",
"cX c #EAE9E7",
"vX c #FEE4E4",
"bX c #FDECE4",
"nX c #FDEBEB",
"mX c #F6E8E8",
"MX c #EAF6E7",
"NX c #FCF4E4",
"BX c #F3F2EB",
"VX c #FDF3EC",
"CX c #FDFCEB",
"ZX c #F6FAE6",
"AX c #EAEBF5",
"SX c #FDECF3",
"DX c #FEECFD",
"FX c #F7E7F8",
"GX c #E9F9F7",
"HX c #FDF4F3",
"JX c #FDFCF3",
"KX c #FDF4FE",
"LX c #F3FDFD",
"PX c #FDFCFE",
"IX c #F5F6F7",
"UX c #DFDCE7",
/* pixels */
"BXCXnXnXaXL.q l.L.XX/.A.S.G.M./.XXF.B.q W.AXjXKXMXvXKXLXvXuX=Xq ~ v.W.#Xb.l.L.F./.XXT.v.q ' lXgXMXIXvXnXPXnXaXuX^ q z.H.@XM.M.G.",
"MXgXCXHXsX@X{ 5XK # q.X /.A.. q.= b.4XE >XAXIXZXHXhXGXPXCXAXfX| 5Xb.P k.X K #X. q.A ! 4X/..XmXaXPXKXhXgXPXKXMXkX$.[.5XL D 5.G #.",
"qXnXAXGXfXiX6Xp.q a x.q.#.{ c.q.k n i.+XfXsXaXGXMX2XrXpXdXSXlX0Xd.R d a.x./.$.q.x.4.# z.`.=XBXDXbXmXuXuXsXNXdXmXiXi.K A 7.m.x. .",
"t *X=XMXdXdXxXK g t.f M W.U.L s 2.A R.gXzXnXhX.X@.=.W.@XuXZX>XZX{.v ,.4.# P.OXR i 2.f ` zXgXbXGX=X@Xt V.@X=XLXgXCXyX_ 5.a g / D.",
"< [ | #XnXPXLXH.c D U F S.3XK U 3 c %XCXMXDX9X| / 8 R | $XlXKXLX*X; S U F /.V.l.n S 4 ! DXKXfXuX| O.< e Q o.fXDXLX>X0 S b L {.B.",
"0 K i.f.8XqXU.` I.^.h.5Xr D g.p.|.I._ eXwXg.g.4XH 8 ~ g.f.p.0X*XS.I.[.a.g.!.0 1Xg.~.U.o.E.eX7Xf.h.M.0 0 ].d.d.7XqX%XJ.E.p.i.N.q ",
"B.[._.) b M P 0XPXHX}.[ 9 q o.6XMXPXXXM L P K } q.t M._.` L I = OXPXKXyXo.q 9 $./.xXLX>Xq b m F b.u.B.B.4XM.v m - P gXPXtX/./ o ",
"Z.! b 4 k f I bXKXfX>X>XS.K.=XsXaXFXkXM s j 0 L H.Z.J.b = j p b 0XCXwXfXdXXXY >XdXdXgXIXQ d 5.0 - V.L.C.T b A 5.i P.PXnXMXqXoXB.",
"XXH.@ ,.r.A K 5XdXAXcXaXuXsXBXsXNXSXp.U f r.<.# U.$.%X# :.r.h U p.cXnXmXmXsXcXMXBXsXKX8XK 0 >.2.A E OX&Xq f 2.,.- ~.7XvXFXdXAXuX",
"X.8.q.x.s 0 K i.=XsXIXNXfXaXIXnXNX/.d._ S 1.).8.p.C }.7.^.,.A W f.{.jXGXBXfX0XhXBXgX;Xg.~.> a 8.c.i.+.|.i./.1.h M p.4X>XHXNXcXbX",
"&.5 9.9.# I 5X(.| :XZXPXSXDXKXmX=X{ d.M.; @ 8.7 k.#.J 5 9.4 v F.g.{ %.UXKXPXNXJXVXiXQ u.5XM v J 6.5 |.` . 7.H # U 5X(...uXGXPXmX",
"-XH G _.U.F.q.Z.' &XdXnXnXIXPXsX XQ B.(.U.@.`.k.l.=X-.5 h.@.K.m.B.R @.fXFXKXBXPXcX&X] V.4XT.H.[.9.6 |.-X5 9.yX/ ^.x.q @.zXtXSXbX",
"u -X%.X.U.Z.U 9 8 B.eXhXgXgXhX0Xq < 8 Y Y.$.X.&.XX< *X@XC  XV.( 8 & w -XhXNXAXhXmX=.O & u ! J. .+.;Xu t ,X+.X.E.=.0 8 < Y.,XHXaX",
"P.J c.|.U.C.c.r R U.bXIXBXGXVXqX@.q -.(.Y. X^.z.J U.A.z.^..XL.M.B.^ H.dXCXcXBXJXzX%X[ q z.T.J.|.z.l.D.G.z.c.|.K.F.k.u Q qXjXFXIX",
"+X2 j 7.v _ 4X(.Q :XZXKXKXKXPXbX@Xo.`.`.P = i.7 G @XJ , 3.L L [.<Xo.$.aXIXKXIXKXgX=X$./.4XI b 9.5.7 #X|., w.v.= F.5X/.O.uXJXPXmX",
"X.g.~.z.h % /.g.-XgXJXhXiXaXIXIXsX/.g.F 0 p ^.q.4XC `.3.R.h v I d.^.pXNXVXdXaXZXSXnX+Xd._.- 5.J ].3.X.$.3.}.j f B i.i.=XFXCXGXiX",
"OXI.3 >.e.4 K g.DXtXbXsXfXrXnXBXMXhXg.n G r.5.c  X%XOXv p r.l M i.tXDXDXaXNXrXdXnXzXZX5Xz.b 2.,.A _ #.oX! j 2.,.B x.9XIXBXbXsXcX",
"J.! = G 1.f Y rXhXcXqXZXE.%XdXwXdXBX9XI <.:.A P J.) K.: A 7.a 0 -XSXcXdX&XE.Q.iX>XgXbXAXG.j ,.A v R Q.T.M 4 j a c F.GXsXMXkX&XJ.",
"Z.~.b.m n = M iXGXLX$XX.8 t | ,XDXKX,X% = N I /.m.y 6X].H B ; ; U.LXKX;X%.R w Q |.FXLXaXM v - I ` `.B.B.'.` P b b R ZXzXmX$XT < ",
"w M.h.g.5X*X` I.*X[.p._.0 u 5Xd.{.eX' G.-Xp.g.p.l.- l.).g.p.$XI.` =X6Xi.g.-.0 ].d.5X=XK.' *X`.i.h.M.0 r 1Xf.f.9XOXL.I.qXg.f.F.8 ",
"& T /.{.pXLXGX/ D 4 ! ~.Z.N.b.I v $ &XJXnXGX^.^.y 8 u ` ^.rXIXJX*Xv = R /.N.( '.E b # ! AXKXSX0X{ ' 8 9 [ } $XZXJXtXM v I ! ~.B.",
"u %..XMXdXvXGX` g ,.g > W.W.% h ,.D ^.PXIXSXiX#. X0 @.+.iXCXmXJX{.v ,.h + P.K.B G a k _ IXMXgXcXoX+.u ( %.:XIXIXMXxX! p 1.c ^ J.",
"W.MXkXSXfXgX7X9.I ,.8.l  XOXz.0.s E p.6XvXbXAXjXhXI.aXsXzXZX0XxXg.P p 0.c.o.O.(.9.>.D J 8XwXgXGXaXAX&X0XFXnXMX>XfX).H A t.w.~...",
"tXHXKXnXpX,X/.5Xn A m.X &.K h z.4 F p.&.qXdXGXIXFXdXDXHXLXZXqX$.p.K # x.5.z.OXX 9.S b 5X~.%.NXkXPXhXsXgXVXPXcXmX%.).[.v A 8.5 #.",
"BXCXgXwXvX Xq N.L.K.~.H F.D.H ^.K.b.H ^ W.lXgXCXZXcXVXJXAXtXOX^ B.M.' $Xk.S.P.l.~.OX' N.y ` sXsXDXJXnXIXNXvXHX0XQ t M.' ` K l.I.",
"fXDXcXmXUX~ * 0 S.W...OX) G.+XO.U.Y.w & C.jXwXUXIXmXmXBXSXwXQ.< 0 ( E...+.R.0 #X+.] Z.H 9 t =XcXgXgXsXMXBXnXuX-X0 < ~ Q.+X+.qX0 ",
"MXLXPXBXgX.X[ <XK E <X5 /.S.3 y.Q M.].| :XfXIXCXLXZXPXLXZXiX,XO.M.c.R z.*.` |.6 0.! J.m._ +.>XkXZXKXHXSXPXLXhXvXXXM.'.T ` 5.3 =X",
"FXwXmXMXNXwX_.p.q j x.5.OX/.6.8.. Y d.|.fXAXGXkXnX*XsXMXCXZXuX|.g.E g z.9.c.+.0.c.j v p.(.>XnXGXSXKXkXaXVXVXsXmX#.p.K 3 k ~.w...",
"V.@XhXHXhXsX7Xb.A e.p _ U.OXD ,.e.M m.aXBXDXMXfX:X) =XiXlXGXdXgX`.D ,.2.3 K.oX_ f r.G v.xXsXfXAXcX;X' J.jXwXGXmXHX5X` h 2.g ] $.",
"e X.X.wXLXLXHXQ   z = E V.L.R 4 f c eXHXVXNX,XZ G.& T @.=XNXVXPX=X# f D m W.Z.E ; g g E IXLXPXjX .] q q  .$.hXDXJXFXP j A v P.Z.",
"& V.4Xp.9XGXcX/ ) v.'.p.-.K u.M._ L ` cXAX7Xq.'.^ < ( ~.u.5XxXGXD.^ F M.4Xz.r p.[.b.! U eXhX7Xg.i.V.9 9 M.i.5XyXJXeXm Q J 1Xm.r ",
"~ q.g.c.K R I -XPX7Xu.OX8 q ~.5XxXIXOXU ! v.'.g.n.r z.5Xp.c./ N ` NXzX5X~.q 9 S.y.7XZXUXI / H ~.4X5XH G 6X5Xl E I R aXGX7Xp.) & ",
"B.J.U ; v f n VXNXcXiXXX) ! oXiXfXLXqX% j b : W R.Y E.D - M j ; qXCXDXfX.X' t .X=XgXDXgX^ g A q P /.( F.F.- M S A ! PXHXnX.XXXq ",
"K.' @ s s.z ! 6XVXMXpXiX0X0XhXaXGXgX8XR h >.h 3 K.D. X0 h >.4.m ~.MXKXsXpXfXeXaXcXgXLX7X~ A e.<.@ V Y.W.> h 4.e.L b.yXHXsXgXsX*X",
"#.~.J t.,.0 b.f.dXmXMXMXmXmXJXnXKX#Xj.! 3 >.u.G [.C {.k.l r.g R d.yXdXcXKXBXaXvXHXbXfX4XM.b 4.1.J n.#.#.J b.,.5.n y.4XfXmXIXMXgX",
"..w.7.K . - ].g.o.uXZXKXvXdXBXFX+X| h.b.; f K 7.8.+.m.k _.A + A.f.K @XAXKXmXZXhXhXsXO.d.y.B i z.n.5.%.{ 5.n.J i I p.(.%.FXHXfXcX",
"+X6 X q.R J.).H Q :XhXJXnXCXPXKX@X] M.`.' Q i.7 -.,X_ $ 0.E T 5X[.Q .XMXPXJXGXIXGX>XQ T.4X` / m.6.2 9Xb.1 1.b.Y F.].D. .iXhXJXKX",
"t -XOX+.-XZ.H q 9 G.0XKXIXMXaX$Xt 9 w ~ V.XX X|.F.t R.|.+.=XT.~ 0 8 y -XdXnXAXKXwXC.q 9 B.Z.#XO.o.|.Z.V.;X$..XQ.Y.6 9 w D.aXIXsX",
"^ E./.&. XC.B.8 u P.kXFXBXNXbX>XZ.q 0 A.C.XX+./.OX) S./.$. XH.~ r 9 =.qXdXbXsXHXdXL.q 8 l.B.K.+.|.+X) ~ |.| $.U.L.H 9 =.-XvXHXhX",
";X5 X u.q _ p.R.X.@XMXLXNXCXKXFX%.[ b.g.Q Y 3.7 G ,Xl.7 3._ Y _.M.$.#.MXMXJXGXJXFX,XX.F.4Xo.R q.X 7 $X$X, :.[.B M.u.G...uXhXPXAX",
" .w.a.F.h b b.h.o.>XDXGXhXmXKXFXiX{ h.{ + j [.9.8. .n.k {.f = _ f./.=XkXPXIXfXPXMXvX$.i.].= f J (.:.$.o.5.5XG g U 5X8..XgXIXVXaX",
"+.~.G 3.4.# K i.FXMXDXBXuXaXBXhXNXwX0.! A >.k G |.X.#XG w.>.A E d.}.jXAXhXdXwXpXHXUXhXp.M.U a 1.G ]. .#.v.J >.<.M u.6XAXSXIXvXsX",
"P.Q @ k e.h E 7XBXaXkXBXeXwXfXfXaXKX6Xm h 2.h v XXT.K.v p a 1.N {.LXZXsXmXfX0XlXpXcXKXyX~ g 2.1.c R 2XE.n g <.,.4 |.tXMXjXsX,X*X",
"V.b.Y B 0 A q NXCXLX.X%.t Y +.gXSXCXiX# A ; U ! b.Z.T.K B N G @  XLXAXqX.XR 0 .X&XvXKXMXm A S > B ^.) B./.B U A c T BXPXnXOXO.w ",
"6 ).'.u.b.[ T OXFX7Xp.^.e w {.g.xXtXI.Y J.z.g.'.N.q c.p.1X8.! Q G.iXzXg.5Xt * A.4X7XzX0XU [ J (.8X8.B.H ).<X(.A./ I vXnX5X`.` < ",
"8 V.(.4X7XJXcX` L W c.5XB.K '.v.I m J.AXgX}.`.~.) 1 t ~.g.7XbXHX-Xn I v._.c.~ 5XJ F F ^ cXPXxX~.u.P.8 * D.i.'.zXCX$X! I K M.n.H ",
"q ]  .zXSXhXFX` g h v m C.Z.I v h A -XKXFXKXuXX.' * H...&XSXMXKXeXc k A B L.P.Y D j j ! JXcXKXvX#. .9 u +.oXvXnXBXMXI h G ; [ V.",
"Z.pXfXnXNXbXxXc.D >.7.H oX XA ,.2.P y.tXlXpXKXvXuXV.&XqXIXgXuXBXn.L 1.>.A OX.XK 6.e.A K yXFXgXmXcX>XE.W.>XxXZXrXdX8XF g r.k J.] ",
"mXsXNXIXcXiX^.p.P g n.j o.b.5.c.i Y h./.>XsXLXMXSXqXMXGXNXaXBX|.f.` @ z.w.J O.6.(.f - ).p.&XbXBXIXKXfXsXKXGXZXmX.Xg.x.; j <Xq.C ",
"MXhXCXAXgX#.! m.b.Q 0.6 $XR.5 ~.T b.b.[ :XgXhXKXZXcXPXHXfXNX>XQ M.b.R y.;.` /.k.n.E S.<X[ $.gXsXCXPXMXMXKXHXhXrX%.~ `.[ ` k 6 -X",
"cXFXcXfXwXt o -.Z.XXX.+Xu ` ;X+.U.!.8 O Y.iX,XxXFXfXHXFXmXfXL.* w V.U.@.&.` =.#X.. XZ.- 9 t eXFXsXvXfXfXbXbXqX*Xe & r Z.#..X$Xq ",
"BXPXCXsXgXK.^ v.F.K.~.H D.J.5 ^.] M.l.T %XcXsXCXCXJXVXhXhXcXqX) l.v.G.$X6.` -X6 ~.[ E.x.t $.dXqXGXGXJXBXLXIXsXwX[ V.M.' [ z.G OX",
"hXaXkXHXgX,X/.g.I i m.h OXb.5.x.4 ` g.o.=XBXDXFXaXcXGXJXHXaX,Xo.p.K c J 8.v.o.j q.c 0 5X~.+XcXHXCXJXKXIXJXVXmXsX%.y.].@ 6.q.6..X",
"E.aXHXNXrXDX7Xy.0 e.7.J @.] J t.,.n u.yXFXMXbXgXfXT.iXrXFXFXfXwXg.I :.1.k.|.%.v.l r.S v.6XnXsXfXsXfXR.E.dXmXAXAXnXg._ G t.z {.X.",
"u @..XhXnXHXMX` j p . B W.U.+ z a v $XhXGXSXiX+.] 8 H.#.:XFXFXIX-X6 ,.j v ] L.^ S 4.f W GXLXhXZX.X#.0 Y #.:XiXhXDXMX~ d p @ / P.",
"1 [ ~.].fXMXPX! v L B.5XB.v.M.~ D - L.KXHXrX'././ O Y o.].yXzXLXOX+ I I v.M.B.n.W ! v m PXFXtX9XJ J.* q ` ~.7XDXPX;Xn D I R.n.) ",
"0 m.h.u.n. X) I.fX6Xi.[.9 t (.i.9XqXI.W #Xq.i.5XN.0 l.`.h.q.E.] J.:X7Xd.(.t 8 M.d.`.wXXXG. XM.i.h.1X0 r 6Xi.i.$XP.` -XyX5Xf.` 9 ",
"Z._._ B L H M cXPXbX+X$.: q |.>XPXLXI.: S B R ` [.=.m.{ n R 4 + E.CXKXqX@X^ q X.#XhXPXGXN @ 0 Y Y M.B.A.{.Y P 0 v / JXHXjXOX] 8 ",
"L./ # X a k I aXZXNXaXsXW.*XfXkXpXPXyXM <.<.f 4 [ Z.D.- G p 4.L 9XZXZXaXiX-XQ.qXwXhXVXzXE G >.g A Q Q.T.P A j e.A ` tXGXnXqX:XF.",
"+.|.H >.>.b K p.mXsXsXZXuXiXBXgXFXiXp.U g s.<.v  X%.-X# 7.r.z U p.9XBXMXBXFXxXmXVXJXuXp.K b 2.>.c A....XK z e.4.n ~.6XAXFXFXsXmX",
"| g.n.m.f ; _.g.-XbXnXSXAXcXZXGXNXF.h.F.D h [.7.0.C 4Xt.{.h 3 E f.].>XnXVXbXfXZXAXcX%Xd.1X- d c._.0.O.$.3.$X6.j n <Xp.&XsXPXvXAX",
"+X2 . 9.; W 5XM.Z @XFXKXFXJXJXFX%.| _.p.; v i., r ,XH 2 1.I N _.5X| #.wXKXZXMXPXZX,X..M.`.[ M l :.2 $X/.2 s J > b.5X{ X.,XGXCXhX",
"P.b.J yXXXT.N.Y ( U.NXKXfXfXHXqXH.y r J K.oX$XJ R.H.F.z.$X XH.b.r q H.aXnXIXGXnXfXXX) u z.L.J.*X~.b.L.C.b./.-XI.F.N.u T &XsXLXdX",
"q =X..C ' Z.r * o ( -XhXSXMXgXeXu o 8 Z.=.] C @XOX* OX@X .X.Y.( e & 0 Q.VXdXdXgXvXu & & y y U.C  .,X9 ~ >XQ  .[ y q O e V.fXFXaX"
};
