/* XPM */
static char *ea20724f3c7e4e78ae962a8a10d717aaBZW1qyTjVSJwGUc6[] = {
/* columns rows colors chars-per-pixel */
"64 64 231 2 ",
"   c #BE8F51",
".  c #BA8C5C",
"X  c #B58859",
"o  c #BE915B",
"O  c #BF9855",
"+  c #BB8E65",
"@  c #BF9462",
"#  c #C58E52",
"$  c #C78D58",
"%  c #C39254",
"&  c #CC9454",
"*  c #CC9E56",
"=  c #C4935C",
"-  c #CB955B",
";  c #C59A5B",
":  c #CC9B5C",
">  c #C39B55",
",  c #D29D5D",
"<  c #D1955D",
"1  c #CEA64F",
"2  c #CCA055",
"3  c #CCA25D",
"4  c #D4A35C",
"5  c #D4AB5A",
"6  c #D9AD5D",
"7  c #D2A556",
"8  c #D8B25F",
"9  c #C28E63",
"0  c #C49564",
"q  c #CA9564",
"w  c #C59B64",
"e  c #CC9C63",
"r  c #C2946B",
"t  c #CA946A",
"y  c #C59B6C",
"u  c #CC9C6A",
"i  c #D29C64",
"p  c #DA9C65",
"a  c #D39C6A",
"s  c #DA9D6A",
"d  c #D39666",
"f  c #C69B73",
"g  c #C99C72",
"h  c #DA9F73",
"j  c #C7A064",
"k  c #CDA263",
"l  c #CEA866",
"z  c #CDA36B",
"x  c #CDAA6C",
"c  c #C7A56C",
"v  c #D3A364",
"b  c #DAA464",
"n  c #D6AB65",
"m  c #DBAC64",
"M  c #D4A36B",
"N  c #DAA46B",
"B  c #D4AB6C",
"V  c #DBAC6B",
"C  c #DBB264",
"Z  c #D5B16A",
"A  c #DDB26D",
"S  c #DFB96B",
"D  c #CCA472",
"F  c #CEAB73",
"G  c #D3A473",
"H  c #DBA472",
"J  c #D4AA73",
"K  c #DCAC73",
"L  c #D4A57A",
"P  c #DAA67D",
"I  c #D5AC7C",
"U  c #DBAC7C",
"Y  c #CFB272",
"T  c #D5B473",
"R  c #DDB374",
"E  c #DDBB74",
"W  c #D6B279",
"Q  c #DDB37B",
"!  c #D7B87C",
"~  c #DCB97B",
"^  c #E3A46C",
"/  c #E2AB6B",
"(  c #E0AC65",
")  c #E2B36C",
"_  c #E3BA6D",
"`  c #E9BA6D",
"'  c #E8B46C",
"]  c #E3A573",
"[  c #E2AD73",
"{  c #EAAC74",
"}  c #E5AD7B",
"|  c #EAAE7B",
" . c #E6A775",
".. c #E3B473",
"X. c #EAB474",
"o. c #E4BA75",
"O. c #EBBC74",
"+. c #E4B47B",
"@. c #EBB57C",
"#. c #E5BA7B",
"$. c #EBBC7B",
"%. c #F1B57C",
"&. c #F3BD7C",
"*. c #F7BA78",
"=. c #EBC376",
"-. c #E5C27C",
";. c #ECC27C",
":. c #EEC87A",
">. c #F2C376",
",. c #F3C37C",
"<. c #F9C37D",
"1. c #F2CA7D",
"2. c #FAC97F",
"3. c #D9AE82",
"4. c #D6B383",
"5. c #DCB383",
"6. c #DCBC83",
"7. c #DCBB8B",
"8. c #D9B886",
"9. c #E2AE82",
"0. c #E3B382",
"q. c #EBB483",
"w. c #E4BB82",
"e. c #ECBC83",
"r. c #E2B58B",
"t. c #E5BB8B",
"y. c #EDBC8A",
"u. c #ECB58E",
"i. c #F2B581",
"p. c #F2BC83",
"a. c #F9BC86",
"s. c #F2BD8A",
"d. c #FABD8A",
"f. c #F8B485",
"g. c #E6BE92",
"h. c #EBBD93",
"j. c #F2BC94",
"k. c #F4BF9A",
"l. c #F7BB91",
"z. c #DEC082",
"x. c #DEC697",
"c. c #E5C284",
"v. c #ECC383",
"b. c #EDC985",
"n. c #E6C48A",
"m. c #ECC38C",
"M. c #EECB8D",
"N. c #E6CD8B",
"B. c #F4C484",
"V. c #FAC583",
"C. c #F4CA84",
"Z. c #FBCA84",
"A. c #F3C48B",
"S. c #FBC48D",
"D. c #F4CA8C",
"F. c #FDCC8C",
"G. c #FCD285",
"H. c #F5D18B",
"J. c #FDD28C",
"K. c #FFD98D",
"L. c #E7C594",
"P. c #ECC493",
"I. c #EDCB94",
"U. c #E4C59A",
"Y. c #ECC59B",
"T. c #E4CC9B",
"R. c #EDCB9C",
"E. c #E6C896",
"W. c #F4C493",
"Q. c #FBC593",
"!. c #F4CB93",
"~. c #FCCC94",
"^. c #F3C59B",
"/. c #F9C59B",
"(. c #F4CC9B",
"). c #FCCC9C",
"_. c #EBD293",
"`. c #E3D39D",
"'. c #ECD39C",
"]. c #E7D89F",
"[. c #F5D295",
"{. c #FED393",
"}. c #FFD995",
"|. c #F4D29C",
" X c #FDD39C",
".X c #FFDA9B",
"XX c #F5D99E",
"oX c #FFE49B",
"OX c #E7C6A0",
"+X c #EAC5A1",
"@X c #E4CCA3",
"#X c #EDCCA2",
"$X c #EBCEA8",
"%X c #F2C6A1",
"&X c #F4CCA2",
"*X c #FCCCA2",
"=X c #F6CEAB",
"-X c #FBCDA8",
";X c #E6D2A4",
":X c #EBD2A5",
">X c #EDD3AB",
",X c #EED8AB",
"<X c #EAD9A2",
"1X c #F4D3A3",
"2X c #FDD4A3",
"3X c #F4DAA3",
"4X c #FEDAA4",
"5X c #F4D4AB",
"6X c #FDD5AA",
"7X c #F4D9AC",
"8X c #FEDBAC",
"9X c #F5D7B2",
"0X c #FED7B3",
"qX c #F5D9B3",
"wX c #FCDCB4",
"eX c #FCDCB9",
"rX c #FFE1AC",
"tX c #F9E2A4",
"yX c #FFE3BC",
"uX c #FFE1B7",
"iX c #FFE4C1",
"pX c #FFEBC5",
"aX c #FFECCA",
"sX c #FFF2CC",
"dX c #FFEED1",
"fX c #FFF4D3",
"gX c #FFFAD5",
"hX c #FFF6DA",
"jX c #FFF9DD",
"kX c #FFFADA",
"lX c #FFFAE1",
/* pixels */
"].T.7XU.3XXXe.e.!.I.q.[ }.b.v #.D._.~ |.R.5X#XT.7X8.8.XX!.A.N {.{.i H  XD.T _.'.>XU.=X3Xv.~ [.D.).B S.J.B K m.|.W |.|.;X@X>X`.<X",
"`.;X5X5XT.XXQ B 4X2XQ.N Q v +.2X{.e.D |.8X:XqXqX#X8.4..X!.).J K V R 2XW.4Xz 6.3X5XeX5X#X_.l m.~.W.Q B ..l  X2X2XD 6.5X#X9X$X,X<X",
",X;XjXjXwX:X2XG 3.h.*X2Xu w.2XW.).u R.5X@XsXkXiX=X-XL 3.2X(.4XF z 2X/./.9.L 2X&XaXfXgX#X|.t.H ).^.uXJ e (.W.^.3.4.5X=XiXjXjX$X5X",
"@XqXkXdXpXR.).0.f wX/.*XK ~.).2X} a (.Y.>XkXgXgX+X0Xj.t 2X(.P.(.c..X*X/.9 W.2X*XgXkXgX>XI.I.0 j.*XW.).e.4X6X%X+ Y.2XY.pXdXkXqXU.",
"T.T.wXpX3X2XA.- W.*XQ.[ V v A.~.~.+.K rX&X3XpX5X6Xr.0 ).~.~.A.= v B.y.).s.k !.L.5XpX5X1X{.J e.Q.).Q., , [ a.2X!.e (.2X;XfXiXU.].",
"3X4XR.Y.|.!.#.$..X X..N {.o.N D.{.J.k ).2X(.(.(.2XQ v.4XF.B.: F.,.v {.{. XV c..X^.&X&XI.{.: F..XS.< Z.2.b p.{. XQ A.|.I.#XR.3XtX",
"~ ! |.4XD.v...' A.M , O.O.,.o.$.o.o...v.+. X2Xm.e.z n #.V , X.&.V.( ..#.E Z -.-.(.(.*Xq.v.S ;...: A ,.` =.n @.p.m ;.p.Q.6X^.K ..",
"c.B F 0.; -...{...N {.J.,.Z.{.A.v Z.B.q.M J A.0 Q B v.J., V..X<.,.K.{.v C.}.n +.y P.M B A C.F.- A..X,.1.G.{.V X.{.R [ a h.D } ..",
"|.2X3.r 2XQ.A.K H s.A.+.V ..A.~.%.i s.y.4X4.D ).2Xf.| ^ %.A.A.B n {.m.e.d &.p..Xh.f 7.4Xv.p.p q.d.a./ / V.S.q.M @.B.2Xh.f P.2X|.",
"(.*X&X^.).4X[ @.9.t a [ ..@.q.a s i.q !.2X2XL.(.*Xq. .%.p k M J #.~ K q S.- p. X*X%X5X4XA.N i.] d ] V ..*.] u y.i } 4X2X%X%X|.|.",
"N (.&X2X X@.) {.).| s. XF.J. X#.b .XB.o (.|.).).A.p.~. X[ $.F.}.{.;.e.M F.{., $.^.1X*Xm.K F.~.| q.4XJ.Z.{.S.a S.~.v [ *X*X*XA.@.",
"V K W.4X[ , C.J.a.@.{.C.) $.{.A.: F.V.e.= !.~.v.M N F.B.$.F.F...o.F.~.a F.F.) v m.W.Q.u $.V.{.+.D.{.=.S :.}.N ..{.O.p } 2X/.a X.",
"{.V B e.p G.) ,.^ X.J.A 2 m C.C.2 =.O.B.B.e S.> J.:.;.Z _ J.O.4 7 ` {.3 _ _ 1.C.e Q.i B.,.O.' b F.#.5 5 _ G.m ' >.O.{.k y.k $.C.",
"J.M Q W., a.1.,./ / J.E 6 6 ;.H.o.` C.V.N b  X> $.C.C.S 2 J.O.' C =.K.#.C K.S ;.i s.} ..2.<.B., {.,.8 5 ' G...n Z.,.$.; ).K Z H.",
"i y.2X).i.: ..tXd.H .X{.C.v.[.D.[ ~.A.J R (. X X; V {.{.k {.D.v.-..Xv.e.~.B.O.:  X2X^.J & F.~.N D.{.1.=.G.{.B.A.}./ N A.6X).K k ",
").~.(.). X~.% A.l.$ y.D.Z.F.~.K [ .X@.v.4X(.L. X Xi i.S.e $.D.D.H.D.+.M ~.V.&. X(.(.6X!.K X. Xd U !.C.C.{.J M Q.B.e.).)./.*X).#.",
"M. X/.W.).{...: | ] @.X.v : ] p { [ i S.4Xm.(.~.~.p.i [ / / @.V , 4 < [ { b &.~.*XY.(.!.F., { ^ ] +.A 3 * b N { v +.).).j.*X X{.",
"[.m.q 0 B.{.$.J.p i. X~.&.<.~.~.^ 4 {.e.~.I X W.4Xe.~., &.~.{.X.<.S..Xa.& F.O.{.Q X D .X$.<./ %. X{._ =.F.}.i.s F.$.{.q.t P I.b.",
"E Y c.I.l l m Z.$.M V.B.O.<.Z./ , Z.,.B z ~ 4XO M $.,.Z.m X.J.O.*.Z.X.% J.1.o.l F 4Xq.e O.&.J.: ..J.<.` ,.C.# V.B.A N z |.4.B ~ ",
"M.I.'.|.[.}.o.o.D.A.K V Z.Z.: [ Z.,.R {.[..XE.2Xm.e.Q $.B.,.v F.*.' i C.;.o.E [.1Xh..Xm.B.o.o.m.b.n 2.>.O.* b.e.$.;. X(.rXE.M.[.",
"I.R.,X:XL.(.+.K 2X|.2X= S.i +. X!.A.c 1X1XR.7XR.6X0.w.4X~.m.J e.$.M ~.).4X; [.|.U.uXU.1X[.j  X X2Xz ..B.  !.|.rXq l.6X#X>X>X#X|.",
"5X:XfXkXwX*X(.z g.R.(.).$ @.*X(.2XG L.&X#XpXgXyX=Xh.f W.(.).).y z |.2X&X9.G !.R.aXkXpXU.2XW G  X(.(.B - ~. X3XI U 6Xh.eXjXkX$X:X",
"#XyXhXjXsX&X*Xr.f =X/.8Xq. X6X^.J D 8XY.qXgXfXfX$X0Xh.r 6X*X^.&X|.(./.Y.. 6X2X&XhXdXkXyX7.3Xr h.(.6X2Xs.2X1Xh.r *X6X%XdXhXhXqX&X",
"#X5XaXdXwXL.2Xw h.6X(.y.e e *X).2XD 5.=X1XiXfXwX&X/.g W.).W.).w @ |.).%XW.0 W.1XyXfXpXx.4XJ U *X(.2X- % D.!.*Xh.y &X%XeXdXfX5X#X",
":X3XR.&XL..Xw.R .X2X$.: J.#.v {.{.{.J 4X|.R.1XR.4X+.U tXF.S.e A.;.l  X{. Xl M.[.R.&X&X).{.l {.{. X: =.G., B.)..XB A.|.R.-X=X:X_.",
"I.6.*XwX~.v.E Z A.q.i ) =.=...%.&.O.R #.!.I. X!.m.K M &.$.4 ..V.,.) A m.b.Z -.c.2X2XW.W.$.A #.B.e B :.=.) &.[ a.$.-.c. X*XW.n._.",
"T D P l.o T E {.%.$ {.F.:.1.~.@., {.B.e.w K 4Xo K e F.{.: $.{.$.,.}.#.: K.B.o.R u ).U q o.$.}.: @.{.C.=.J.F. .%.v.T Q t *X3.F c ",
"|..XP t )..Xo.B.i Q.~.B.A A F..X%.& F.m.2XI . ).8Xq.A.& i.{.F.....,.4Xp.: F....Xr.+ 5..XA.J.% | ).{...A Z.F.| ^ A.v..Xq.t U .X[.",
" X^.6Xh./.~.v.v s.q H e k B.+.a N %.q ).)./.&X).W.A.a p.M M i B #.R M i i.< S.Q.*X%X=X).p., Q.} q u e n @.} H q.i +.).*X/.-X2X!.",
"J ).*X/.).W.K {.s.0.A.D..Xv.~.Q N {.@.u ).(.).).2XU A.{.H ..2XC.C.{.s.a ).S.< ).^.-X(.2X+.p.~. .s.).{.{. X$.M A.S., W.2X*X/. Xe.",
"e Q 2X Xe.v ) {.D.R [.{.) B.D.J.b V.~.[ H ).).m.e +. X{.) .X;.C.1.,.{.- F.F./ : 2X).A.M A J.F.$.m.!.;.O.Z.J.M B.{.X.v q. X.Xk m ",
"{.V l M.: V.<.>.N v.{.A 6 m b.D.* <.&.X.e.k !.j v.F.O.A X.J.;.2 7 ,.J.v ` 1.,.B.= ).a p.&.,.;.n {.v.( 5 A }.B m <.<.V.: t.Q A F.",
"{.V z !.: Z.<.V.M K }.V 4 V b.[.V ' &.B.e.e ~.% B.B.F./ m J.=.4 2 ,.J.E o.O.Z.v.w I.w V.&.*.&.* {.c.m 6 C }.o.A ,.<.B., m.B ..G.",
"k B 4X Xe.v / }.B.B ~.~.X.$.{.e.,.Z.J.K v !.).~.q X.F.V.4 F.B.B.<.<.{.o.V.}.) k R.2X).; b }.F.i !.{.=.( }.B.~ B.F.X.i A.4X XM 4 ",
"m.2X).^.!.e.v ~.q.G q.~.}. X!.y.[ {.A.+.).).2XW.).- S.~.b p. XB.J.{.e.a  X$.K  X*X%X(.).M @.~.s y.A.J.}.F.F.+.!.~.@. XW.j.).2XK ",
"|.m.-X/.6X~.+.: q.h } s.v : H $ i S.i ).6X/.W.2XW.Q.q @.i M ..$.v : d H $.K A.!.*X-X*X(.B.= d. .u 5.D.* v - q i.N K Q.4X*X*X).~.",
"|.|.J 9 Q..Xo.C.s f.S.B._ ..F. X&.& C.e.!.I =  X Xp.A., V.{.~.V ) Z.Q.i.% F.c.oXh.X 9.rXb.Z.- {  XS.C C C.V.Q.< b.c..Xq.t 9.4X{.",
"T F U W.= E T C.i.^ ~.{._ 1..X[ % {.B.#.B 5.(.. +.e ~.B.: F.F.,.C.J.a.< {.F.Z l u /.D e #.o.F.^ i.F.K.=.K.}.# p.{.T K w *Xh c x ",
"_.! 2X2XI.b.$.o.&.} %.) 1.=.m , B...R v.!.!.4X!.w.Q i ,.S.n $.v.,./ & V...o.-.M.(.*X|.D.E #.V.{ %.@.S =.X.& p.e.V #.I. X).).n.N.",
"].R.(.=XI..X~ ...X Xa., G.o.i  X{.D.l 4XR.I.R.R.4XQ q..XD..XO F.v.* ).)..Xn w.XX(.R.&X|._.k  X~. Xe -.K.* $. X.XR m.2X#X*X=XR.1X",
":X:XaXfXuXr..Xw ).*X(.y.% e ).(.2XJ 4.1X#XiXsXuX%XY.y ).(.W.&X0 e )./.2XU z (.L.eXkXeX&X2Xu r.).*X/.e   !.!.6Xr.c 2X%X=XhXdX=X#X",
"OXyXkXgXpX&X*X7.r Y.6X2Xp..X2X(.L z uXU.uXfXkXgX9X#XY.r -X(.*X(.W.2X*XU.y 2X(.6XfXhXjX0Xh.2X. L.L.8X).S. X(.Y.f *X=X+XdXlXhXeX5X",
"5X>XgXkXqX1X).u 7.6X(.Q.q K ).(.(.J 7.5XU.sXgXuX#X&Xf t.2X/.6X0 a !.(.5XQ L W.(.gXsXsX#X2X+.I *X*X*XK % )..XE.4.G 2X+XyXjXkXU.U.",
"I.#X>X7XR.(.+.[ 4X2X(.= B.V J .X[.D.D 2X7X#X8X#X2Xn.5.8XW..X= A.+...E.!.4XM A..Xx.uXU.R.~.= ~. X!.I V B.: !.1X4XM W.^.#X@X0X5X1X",
"[.E.I.|.{.{.R ;.e.A.  O.2.Z.n #.Z.$.A D.!.|.L.|.|.z N V.{.4 V B.O.;.o.D.;.R #.!.|.U.4Xm.F.` &.F.+.; <.2.) o.C.B.#.c. X2X1XE._.|.",
"T T L.Y.M n Z B.a.$ F.C.` ,.F.@.4 {.#.Q w n.rXj B M O.F.& X.F.<.>.>.&.k Z.O.:.3 I  Xw.w A O.{.$ b F.2.>.O.C.i A.B.n n G 2Xt.c O ",
"I.m.t q A.{.$.Z.N i. XF.,.o. X{./ , {.+. XG X M.S.S.S.< %.~.{.%.,.J.{.%.: {.A }.Q 0 D ~.B.Z.p *. X~.,.` J.{.%.i J.c.{.U r L  X[.",
"XX2X^.j.~.~.#.v | N ] e 3 A [  .X.{ e Q.2XA.(.(.).q.b %. ., N : m ..| ] $.: C. X*Xu.2X/.v.n ^ { d N 3 4 ..{ ] @.: +.2X/.k.2X!.I.",
"#.).)./.~.~.$.A.Q.M Q {.b.[.!.K b  XN K ). X!.!.).p.S.S.v +.Q.D.[.c.q.9 ~.+.i }.(.(.2X(.b....XH H ).[.C.V.e.= Q.p.e W.2X-Xk.*X!.",
": e./.8XW.* o.}.A.e. XJ.=.C.[.b., F.{.: J |.4XQ.M [ ~.F.#.D.[.v.b.{.!.K {.{.n j ).*X|.J N Z. X[ (.{.;.C.J.{.H A.4X[ a y.*X6Xe.M ",
"H.n Q ~.O ;.>.Z.A ..F.O.C 6 ,.J.m ,.O.V...N p.n ;.o.J.A =.J.,.A ' O.F.3 A 1.:.#.e ).B ..,.Z.;...{.-.5 8 =.G.V ) ,.Z.O.e  X+.v C.",
"J.R B #.3 oX) >.V R K.( 5 5 B.C.7 O.;.<.B., F.% F.b.o._ 2 }./ 4 * o.{.R A ,.:.G.e A.- F.,.=.$.> H.;.5 1 _ J.' / =.O.Z.v e.j ..K.",
"+.N Q.2X| p ,.{...H }.$.C =.}.c.m {.V.+.j ~.~.e.n R {.V.: }.D.#.) J.~.p.&.{.V v y.2Xy.= ;.Z.Z.N D.H._ C 2.K...$.J.B.b V  X!.v A ",
"@.W.*X*X).b 4  XQ.M W.{.J.J..X#.$.~.B.Q P.(.2X X+.a ~.~.N e.~.{.{.F.s.H  XF.&.i.(.8X*X!.o V. XN e.{.C.G.K.,...~.J.V e.).2X6XM.k ",
"|.!.&X&X X4XM M y.u  .a.@.[ H p p a.K W.3X2XR.(.2X| s s.- e.R v.Q v P d d. .q. X*X+XwX|.D.- f.s M w.o.` ) v i @.[ @.2X*X^.^.2X!.",
"(.XX3.g (.D.F...a q.~.a.b ..i.s.@.i $.P.2XW y 2X2Xy.i.d q.B.!.M n A.q.s.p a.$.2Xk.r 7.4Xv.q.] | W.A...v ..p.s.B +.v.(.(.r Y. X[.",
"e.J P 0.= p.A }.} ..{.K.O.C.oXB.3 Z.v.+.K M y.w ~ +. X;.v {.{.&.,.}.~.i Z.D.o.+.@ P.t ....F.V.B D.}.O.G.{.F.N +.{.@.+.y L.D ! c.",
"w.K 2X2XS.,...o.p.@.R ;.O.,.B * o.;.#.v.w. X2Xm.w.E #.o.O.V X.Z.V.( - ..o.E =.Q ).&X/.q.;.o.#...$.+.,.` O.4 N A...#.0.!.8XY.F z.",
"3X3X1XL.R.[...e.~.2Xi.N {.O.V s.{.{.k !.2X(.I.|.4X6.0.tXF.F.b &.,.4 A..X XR b..X/.&X&X(.~.3 ~. X(.a $.Z.V +.*X X+.m.).Y.#X#X7XtX",
"`.T.qXsX1XXXm.y  X(.~.s b e d.2XS.+.J wX#X7XpX6X&XW.0  XS.Q.e.i , p.Q. XA.o !.E.5XpXqX1XD.J s.~.*Xy.v M +.Q.*XW.w (.wX=XaXiX#X'.",
"#XeXkXdXpXY. X5.r *X6X4Xy.!.W.*X0.G *XU.>XgXgXfX=X-Xu.a ).2X(.m.m. X).Q.q W.2X&XkXjXkX5X(.(.t u.6X-XA.+.2X).6Xr ^.(.+XfXdXlX9X@X",
"5X$XkXkXwX#X3XF r.h.&X(.= w.4X*X).u (.9X@XsXkXiX+X-X3.9.2XW.(.+.T 2XW./.P 0.*X&XdXdXfX@X1X7.G *Xu.6X+.M  X2Xh.L 7.*X#XiXlXjX;X>X",
"x.>X>X9XT.|.! F 6X6XW.J #.J 0.(.~.~ D 1X7X;XuX9X7X4.P 4X~.{.Q / v R 4XP.!.F 4.3X>XeXqXR.'.w m. X(.w.v A k ~.2X.XD w.1XU.qX,X,X`.",
"<X;X,Xx.3X'.n.c.|.W.J K {.C.H A.[.D.6.1XR.5X#XR.1X7.F  X~.K b ~.K.v c. X[.~ _.'.5XU.5XR.I.~ .X[.q.w C.K.A e.A. XQ |.|.:X:X<Xx.tX"
};
